<svg width="56" height="56" viewBox="0 0 56 56" fill="none" xmlns="http://www.w3.org/2000/svg">
<path fill-rule="evenodd" clip-rule="evenodd" d="M16.6343 35.827C16.3496 35.1597 15.5796 34.8494 14.9123 35.134C14.2449 35.4187 13.9346 36.191 14.2193 36.856L14.9379 38.543C12.0423 37.3904 10.1033 34.5624 10.1033 31.4334C10.1033 30.7077 9.51527 30.1197 8.79194 30.1197C8.06627 30.1197 7.47827 30.7077 7.47827 31.4334C7.47827 35.5634 9.99127 39.3084 13.7689 40.9044L12.2709 41.5437C11.6036 41.8284 11.2933 42.5984 11.5779 43.2657C11.7926 43.765 12.2779 44.0637 12.7866 44.0637C12.9593 44.0637 13.1343 44.031 13.3023 43.9564L17.8499 42.015C18.5149 41.7304 18.8253 40.9604 18.5406 40.293L16.6343 35.827Z" fill="#3E50B4"/>
<path fill-rule="evenodd" clip-rule="evenodd" d="M37.7114 21.0044C37.926 21.5014 38.4114 21.8024 38.9224 21.8024C39.0927 21.8024 39.2677 21.7674 39.4334 21.695C40.1007 21.4104 40.411 20.6404 40.1264 19.973L39.4077 18.2884C42.3034 19.441 44.2424 22.269 44.2424 25.398C44.2424 26.1214 44.8304 26.7094 45.5537 26.7094C46.2794 26.7094 46.8674 26.1214 46.8674 25.398C46.8674 21.268 44.3567 17.523 40.5767 15.927L42.0747 15.2854C42.742 15.0007 43.0524 14.2307 42.7677 13.5634C42.483 12.896 41.7107 12.588 41.0457 12.8727L36.4957 14.814C36.176 14.9517 35.9217 15.2107 35.7957 15.5327C35.665 15.8547 35.6674 16.2164 35.805 16.536L37.7114 21.0044Z" fill="#3E50B4"/>
<rect x="25.6667" y="30.3333" width="23.3333" height="15.8667" fill="#00A731"/>
<path fill-rule="evenodd" clip-rule="evenodd" d="M42.4529 37.8921C42.2461 35.0648 39.7865 32.9403 36.959 33.1472C34.1315 33.3539 32.007 35.8137 32.2141 38.6412C32.4208 41.4684 34.8806 43.5929 37.7078 43.3861C40.5353 43.1794 42.6598 40.7196 42.4529 37.8921Z" fill="#F2DFA8"/>
<path fill-rule="evenodd" clip-rule="evenodd" d="M37.4562 36.1468C37.9778 36.1468 38.306 36.3528 38.4465 36.4406C38.5036 36.477 38.5736 36.4832 38.6369 36.4592C38.7002 36.4343 38.75 36.3805 38.7738 36.3117L38.9926 35.677C39.0318 35.5625 38.9902 35.4334 38.894 35.3717C38.5905 35.1756 38.2534 35.059 37.8683 35.0164V34.3179C37.8683 34.1793 37.7664 34.0667 37.6398 34.0667H37.097C36.9701 34.0667 36.8683 34.1793 36.8683 34.3179V35.0851C36.0582 35.3081 35.5457 35.9776 35.5457 36.8385C35.5457 37.9077 36.3496 38.3979 37.1339 38.7354C37.878 39.0666 37.9804 39.3696 37.9804 39.6477C37.9804 40.061 37.6536 40.3392 37.167 40.3392C36.7685 40.3392 36.355 40.2038 36.0327 39.9677C35.9742 39.9246 35.9011 39.9136 35.8339 39.9379C35.7671 39.9628 35.714 40.019 35.6906 40.0916L35.4805 40.736C35.4455 40.8419 35.4795 40.9601 35.5621 41.0254C35.8649 41.2623 36.3357 41.4327 36.8071 41.4814V42.2154C36.8071 42.3545 36.9094 42.4667 37.0356 42.4667H37.5876C37.7138 42.4667 37.8161 42.3545 37.8161 42.2154V41.4191C38.6517 41.1865 39.2001 40.4694 39.2001 39.58C39.2001 38.4094 38.3982 37.9001 37.7009 37.5877C36.8921 37.2202 36.7561 37.0236 36.7561 36.723C36.7561 36.4448 36.9399 36.1468 37.4562 36.1468Z" fill="#00A731"/>
<rect x="7" y="9.33331" width="23.3333" height="15.8667" fill="#1C5734"/>
<path fill-rule="evenodd" clip-rule="evenodd" d="M23.7862 16.8921C23.5793 14.0648 21.1198 11.9403 18.2923 12.1472C15.4648 12.3539 13.3403 14.8137 13.5474 17.6412C13.754 20.4684 16.2138 22.5929 19.0411 22.3861C21.8686 22.1794 23.9931 19.7196 23.7862 16.8921Z" fill="#F2DFA8"/>
<path fill-rule="evenodd" clip-rule="evenodd" d="M18.7895 15.1468C19.311 15.1468 19.6393 15.3528 19.7797 15.4406C19.8369 15.477 19.9069 15.4832 19.9702 15.4592C20.0335 15.4343 20.0832 15.3805 20.107 15.3117L20.3258 14.677C20.3651 14.5625 20.3234 14.4334 20.2273 14.3717C19.9238 14.1756 19.5867 14.059 19.2015 14.0164V13.3179C19.2015 13.1793 19.0996 13.0667 18.973 13.0667H18.4303C18.3034 13.0667 18.2015 13.1793 18.2015 13.3179V14.0851C17.3914 14.3081 16.8789 14.9776 16.8789 15.8385C16.8789 16.9077 17.6828 17.3979 18.4672 17.7354C19.2113 18.0666 19.3136 18.3696 19.3136 18.6477C19.3136 19.061 18.9868 19.3392 18.5002 19.3392C18.1018 19.3392 17.6883 19.2038 17.366 18.9677C17.3074 18.9246 17.2343 18.9136 17.1672 18.9379C17.1003 18.9628 17.0472 19.019 17.0239 19.0916L16.8137 19.736C16.7787 19.8419 16.8128 19.9601 16.8954 20.0254C17.1981 20.2623 17.669 20.4327 18.1403 20.4814V21.2154C18.1403 21.3545 18.2427 21.4667 18.3688 21.4667H18.9209C19.047 21.4667 19.1494 21.3545 19.1494 21.2154V20.4191C19.9849 20.1865 20.5334 19.4694 20.5334 18.58C20.5334 17.4094 19.7314 16.9001 19.0342 16.5877C18.2253 16.2202 18.0894 16.0236 18.0894 15.723C18.0894 15.4448 18.2732 15.1468 18.7895 15.1468Z" fill="#1C5734"/>
</svg>
