<svg enable-background="new 0 0 221.1 45.6" viewBox="0 0 221.1 45.6" xmlns="http://www.w3.org/2000/svg"><g fill="#fff"><path d="m141.4 16.6c.4-2.7-.8-3.4-2.9-3.4h-2.6c-1.6 0-2 .1-2.3 1.7l-1.1 6.5h3.9c1.1 0 1.8-.4 2.2-.8.2-.2.4-.5.5-.8.1-.2.2-.5.3-.7 0 0 .1-.1.1-.2h1.1l-1.2 7.1h-1.1c.3-1.9-.2-2.9-2.1-2.9h-4l-1.3 7.3c-.3 1.8 0 1.8 1.7 1.8h3.7c1.8 0 2.9-.7 3.5-3.2h1.1l-1 4.9h-13.4l3.1-17.9c.3-1.7.4-2.4.1-2.9-.3-.4-.9-.5-2.3-.8-.1 0-.3-.1-.4-.1l.2-.9h16.1l-.8 5.1h-1.1z"/><path d="m148 24.1c.4.2.8.5 1.2.8 1.6 1 3.3 2.4 2.8 4.9-.6 3.3-3.5 4.6-6.8 4.6-1 0-1.9-.1-2.6-.2s-1.3-.3-1.7-.4l.5-2.8c1 .8 2.3 1.8 4.1 1.8 2.1 0 3-1 3.2-2.2.1-.8-.2-1.4-.8-1.9-.3-.3-.6-.5-1-.8-.4-.2-.8-.5-1.2-.8-1.6-1-3.3-2.2-2.9-4.6s2.4-4.5 6.4-4.5c.9 0 1.6.1 2.3.2.5.1.9.2 1.2.3l.2.1-.5 2.7c-.2-.2-.4-.3-.6-.5s-.5-.4-.8-.5c-.6-.4-1.4-.7-2.3-.7-1.1 0-2.3.4-2.6 1.8-.1.8.2 1.3.8 1.8.4.4.8.6 1.1.9"/><path d="m157 18.5.4-2.6 4-3.1-1 5.7h4.3l-.3 1.5h-4.3l-1.7 9.6c-.4 2.3-.4 3.3 2.1 3.3.4 0 .9 0 1.3-.1l-.2 1.5c-.8.1-1.6.3-2.3.3-3.2 0-5-.5-4.4-4.4l1.8-10.1h-2.6l.3-1.5h2.6z"/><path d="m172.2 25.3.3-1.6c.4-2.1.7-4.3-1.2-4.3-2 0-2.5 1.7-2.8 3.1v.2h-4.1c.8-2.3 2.4-4.7 7.1-4.7 4.8 0 5.1 2.5 4.5 5.8l-1.8 10.2h-3.5l.3-1.8c-.2.2-.4.4-.5.5-.3.3-.6.5-1 .8-.8.5-1.8.9-3.1.9-2.6 0-4.2-1.9-3.9-3.9.9-4.7 7.4-5.1 9.7-5.2m-5.7 4.7c-.3 1.5.3 2.5 1.5 2.5 1.9 0 3.3-1.7 3.7-4l.3-1.8c-1.5 0-5 .3-5.5 3.3m0 0c-.3 1.5.3 2.5 1.5 2.5 1.9 0 3.3-1.7 3.7-4l.3-1.8c-1.5 0-5 .3-5.5 3.3m5.7-4.7.3-1.6c.4-2.1.7-4.3-1.2-4.3-2 0-2.5 1.7-2.8 3.1v.2h-4.1c.8-2.3 2.4-4.7 7.1-4.7 4.8 0 5.1 2.5 4.5 5.8l-1.8 10.2h-3.5l.3-1.8c-.2.2-.4.4-.5.5-.3.3-.6.5-1 .8-.8.5-1.8.9-3.1.9-2.6 0-4.2-1.9-3.9-3.9.9-4.7 7.4-5.1 9.7-5.2"/><path d="m193.8 10.7-4.1 23.4h-3.5l.3-1.7c-.3.2-.5.4-.7.6-.3.2-.7.5-1.1.7-.8.5-1.8.8-3.1.8-4.4 0-5.4-3.7-4.7-7.9s3.2-8.5 7.6-8.5c2.6 0 3.5 1.3 4 2.4.1-.1.1-.5.2-.9l.3-1.8c.2-1.3.4-2.5.4-2.5.4-2.2 0-2.8-1.7-2.9-.1 0-.3 0-.3 0l.2-.8zm-6 14.6c.3-1.9.5-5.2-2.5-5.2s-3.9 3.7-4.4 6.1c-.5 2.6-.8 6.4 2.2 6.4 3.1 0 4.1-4.1 4.4-5.9z"/><path d="m201.2 18.1c4.9 0 6.7 3.4 5.8 8.2-1 5.4-3.7 8.1-8.7 8.1-5.4 0-6.7-3.5-5.8-8.2 1-5.5 3.8-8.1 8.7-8.1m2 8.2c.5-3.1.9-6.9-2.2-6.9-3.2 0-4.1 4-4.7 6.9-.5 2.8-.9 6.9 2.2 6.9 3.2-.1 4.1-3.6 4.7-6.9m0 0c.5-3.1.9-6.9-2.2-6.9-3.2 0-4.1 4-4.7 6.9-.5 2.8-.9 6.9 2.2 6.9 3.2-.1 4.1-3.6 4.7-6.9m-2-8.2c4.9 0 6.7 3.4 5.8 8.2-1 5.4-3.7 8.1-8.7 8.1-5.4 0-6.7-3.5-5.8-8.2 1-5.5 3.8-8.1 8.7-8.1"/><path d="m55.1 31.1c-.2 1.3 1 1.3 2.9 1.3 3.6 0 5.4-1.6 6-5 .6-3.2-1.6-4.4-4.5-4.4h-3zm13.4-14.1c-.6 3.2-3 4.5-4.7 5 2.2.5 4.7 1.8 3.9 6-.5 3-2.5 4.5-4.7 5.3-1.1.4-2.2.6-3.3.7-1 .1-2 .1-2.7.1h-6.3l3.1-17.9c.3-1.7.4-2.4.1-2.9-.3-.4-1.1-.6-2.6-.9l.1-.8h9.9c4-0 8 .9 7.2 5.4m-11.7 4.3h2.1c2.8 0 5.1-.9 5.7-4.2.5-2.9-.9-3.9-3.9-3.9-2 0-2.5.1-2.8 1.7z"/><path d="m77.5 25.3.3-1.6c.4-2.1.7-4.3-1.2-4.3-2 0-2.5 1.7-2.8 3.1v.3h-4.1c.8-2.3 2.4-4.7 7.1-4.7 4.8 0 5.1 2.5 4.5 5.8l-1.8 10.2h-3.5l.3-1.8c-.2.2-.4.4-.5.5-.3.2-.6.5-1 .8-.8.5-1.8.9-3.1.9-2.6 0-4.2-1.9-3.9-3.9 1-4.8 7.5-5.2 9.7-5.3m-5.7 4.7c-.3 1.5.3 2.5 1.5 2.5 1.9 0 3.3-1.7 3.7-4l.3-1.8c-1.4 0-4.9.3-5.5 3.3m0 0c-.3 1.5.3 2.5 1.5 2.5 1.9 0 3.3-1.7 3.7-4l.3-1.8c-1.4 0-4.9.3-5.5 3.3m5.7-4.7.3-1.6c.4-2.1.7-4.3-1.2-4.3-2 0-2.5 1.7-2.8 3.1v.3h-4.1c.8-2.3 2.4-4.7 7.1-4.7 4.8 0 5.1 2.5 4.5 5.8l-1.8 10.2h-3.5l.3-1.8c-.2.2-.4.4-.5.5-.3.2-.6.5-1 .8-.8.5-1.8.9-3.1.9-2.6 0-4.2-1.9-3.9-3.9 1-4.8 7.5-5.2 9.7-5.3"/><path d="m93.4 25.4c.5-2.7.8-4.9-1.3-4.9s-4.6 3-5 5.4l-1.4 8.2h-3.5l2-11.2c.4-2.2 0-2.8-1.9-2.9h-.3l.1-.8 6.3-1.1-.7 4.1c1.1-1.6 3.3-4.1 6.2-4.1 3.1 0 3.7 2.2 3.3 4.8l-2 11.2h-3.5z"/><path d="m107.7 22.8c.3-1.5.2-3.4-1.7-3.4-2.2 0-3.1 2.4-3.7 5.6-.9 4.9.9 7.5 3.9 7.5 1 0 2.3-.2 3.1-.4 0 0 .1 0 .2-.1l-.3 1.6c-.7.2-1.2.4-1.9.6-.7.1-1.6.2-3 .2-4.7 0-6.9-3.3-6-8.4.8-4.6 3.3-7.9 8.1-7.9 3.6 0 5.7 1.8 5.4 4.4v.3z"/><path d="m120 18.1c4.9 0 6.7 3.4 5.8 8.2-1 5.4-3.7 8.1-8.7 8.1-5.4 0-6.6-3.5-5.8-8.2 1-5.5 3.8-8.1 8.7-8.1m2 8.2c.5-3.1.9-6.9-2.2-6.9-3.2 0-4.2 4-4.7 6.9-.5 2.8-.9 6.9 2.2 6.9 3.2-.1 4.1-3.6 4.7-6.9m0 0c.5-3.1.9-6.9-2.2-6.9-3.2 0-4.2 4-4.7 6.9-.5 2.8-.9 6.9 2.2 6.9 3.2-.1 4.1-3.6 4.7-6.9m-2-8.2c4.9 0 6.7 3.4 5.8 8.2-1 5.4-3.7 8.1-8.7 8.1-5.4 0-6.6-3.5-5.8-8.2 1-5.5 3.8-8.1 8.7-8.1"/></g><path d="m4.7 4.9h35.7v35.7h-35.7z" fill="#c0233d"/><path d="m40.4 23.7-15.1-12.7v23.7h15.1z" fill="#db8916"/><path d="m25.3 14.4v-3.4c-1.1 1.2-3.7 3.2-7 3.7v2.6l-2.6 1.1v2.3l-11 4.3v9.7h23.2v-21.4z" fill="#fff"/><path d="m18.3 19.7-2.1.8c-.2.1-.4.4-.4.6v1.6c0 .3-.2.5-.4.6l-10.7 4.1v2.5l10.7-4.1c.2-.1.4-.4.4-.6v-1.6c0-.3.2-.5.4-.6l2.1-.8z" fill="#c0233d"/><path d="m18.3 24.5-2.1.8c-.2.1-.4.4-.4.6v1.6c0 .3-.2.5-.4.6l-10.7 4.1v2.4l10.7-4.2c.2-.1.4-.4.4-.6v-1.6c0-.3.2-.5.4-.6l2.1-.8z" fill="#c0233d"/><path d="m4.7 34.7h35.7v5.9h-35.7z" fill="#0e498e"/><path d="m14.4 37.5v.3c0 .2-.2.5-.4.7-.1.1-.3.2-.4.2s-.1-.1-.1-.2c0-.2.1-.6.2-.8s.3-.4.5-.4c0 .1.1.1.2.2m.8-1.7-.6.1-.2 1.2c-.1-.1-.2-.1-.4-.1-.6 0-1.2.8-1.2 1.6 0 .4.1.6.4.6.2 0 .4-.1.6-.3.1-.1.2-.2.3-.3 0 0 .1-.1.1-.2l-.1.6h.5z" fill="#fff"/><path d="m16.7 37.6-.7.5c.1-.3.2-.4.3-.6.1-.1.2-.2.3-.2 0 .1.1.1.1.3m.5-.2c0-.3-.2-.4-.6-.4-.7 0-1.2.6-1.2 1.5 0 .5.2.8.6.8.2 0 .4-.1.6-.2.1 0 .1-.1.2-.2s.2-.1.3-.2l-.2-.3c-.3.2-.4.3-.5.3s-.2.1-.3.1-.2 0-.2-.1c0 0 0-.1-.1-.2l.9-.5c.4-.2.5-.3.5-.6" fill="#fff"/><path d="m19.1 37.1c-.2-.1-.4-.1-.6-.1-.5 0-.8.2-.8.6 0 .1 0 .2.1.3 0 .1.1.1.2.2 0 0 .1.1.3.2.1.1.2.2.1.2 0 .1-.1.2-.3.2-.1 0-.3 0-.5-.1l-.2.4c.2 0 .2.1.4.1h.3c.4 0 .7-.3.8-.6 0-.2-.1-.4-.4-.6-.2-.2-.3-.2-.3-.3v-.1c0-.1.1-.2.3-.2.1 0 .2 0 .5.1z" fill="#fff"/><path d="m20.9 37.5v.3c0 .2-.2.5-.5.7-.1.1-.3.2-.4.2s-.1-.1-.1-.2c0-.2.1-.6.2-.8s.3-.4.5-.4c.2.1.3.1.3.2m.9-1.7-.6.1-.2 1.2c-.2-.1-.3-.1-.4-.1-.6 0-1.2.8-1.2 1.6 0 .4.1.6.4.6.2 0 .4-.1.6-.3.1-.1.2-.2.3-.3 0 0 .1-.1.1-.2l-.1.6h.5z" fill="#fff"/><path d="m23.3 37.6-.7.5c.1-.3.2-.4.3-.6.1-.1.2-.2.3-.2-0 .1.1.1.1.3m.5-.2c0-.3-.2-.4-.6-.4-.7 0-1.2.6-1.2 1.5 0 .5.2.8.6.8.2 0 .4-.1.6-.2.1 0 .1-.1.2-.2s.2-.1.3-.2l-.2-.3c-.3.2-.4.3-.5.3s-.2.1-.3.1-.2 0-.2-.1c0 0 0-.1-.1-.2l.9-.5c.4-.2.5-.3.5-.6" fill="#fff"/><path d="m26.9 37h-.3l-1.1.4.1.4.6-.2-.3 1.6h.6z" fill="#fff"/><path d="m28.8 38.4c0 .3-.3.5-.5.5-.3 0-.4-.1-.4-.4 0-.2.1-.4.3-.5l.3-.2.3.3zm.2-1.6c0 .1-.1.2-.2.3l-.3.2-.2-.2c0-.1-.1-.2-.1-.2 0-.2.2-.3.4-.3.3-.1.4 0 .4.2m.5-.1c0-.4-.3-.6-.8-.6-.6 0-1 .3-1.1.7 0 .2.1.4.2.5l.2.2-.4.3c-.3.2-.5.5-.5.8 0 .4.3.7.9.7.7 0 1.3-.3 1.3-.8 0-.2-.1-.5-.3-.6l-.3-.3.3-.2c.2-.2.3-.2.4-.4s.1-.2.1-.3" fill="#fff"/><path d="m31.6 36.8h-1.4l-.3 1.6h.3c.1 0 .3 0 .4.1s.1.2.1.3c0 .4-.3.7-.6.7-.1 0-.3 0-.5-.1l-.2.4c.3.1.4.1.6.1.7 0 1.2-.6 1.3-1.2 0-.3-.1-.6-.4-.7-.1 0-.2 0-.4 0l.1-.7h.8z" fill="#fff"/><path d="m33.6 36.8h-1.4l-.3 1.6h.3c.1 0 .3 0 .4.1s.1.2.1.3c0 .4-.3.7-.6.7-.1 0-.3 0-.5-.1l-.2.4c.3.1.4.1.6.1.7 0 1.2-.6 1.3-1.2 0-.3-.1-.6-.4-.7-.1 0-.2 0-.4 0l.1-.7h.8z" fill="#fff"/></svg>