<?xml version="1.0" encoding="UTF-8"?>
<svg width="349px" height="72px" viewBox="0 0 349 72" version="1.1" xmlns="http://www.w3.org/2000/svg" xmlns:xlink="http://www.w3.org/1999/xlink">
    <!-- Generator: Sketch 49.2 (51160) - http://www.bohemiancoding.com/sketch -->
    <title>logo_be_oscuro</title>
    <desc>Created with Sketch.</desc>
    <defs></defs>
    <g id="Page-1" stroke="none" stroke-width="1" fill="none" fill-rule="evenodd">
        <g id="logo_be_oscuro" fill-rule="nonzero">
            <g id="logo-banco-copy">
                <g id="Group" transform="translate(79.147059, 9.756156)" fill="#484848">
                    <path d="M156.261765,10.1228829 C156.95,5.57261261 154.885294,4.39291291 151.272059,4.39291291 L146.798529,4.39291291 C144.045588,4.39291291 143.357353,4.56144144 142.841176,7.2578979 L140.948529,18.2122523 L147.658824,18.2122523 C149.551471,18.2122523 150.755882,17.5381381 151.444118,16.864024 C151.788235,16.526967 152.132353,16.0213814 152.304412,15.5157958 C152.476471,15.1787387 152.648529,14.6731532 152.820588,14.3360961 C152.820588,14.3360961 152.992647,14.1675676 152.992647,13.999039 L154.885294,13.999039 L152.820588,25.9645646 L150.927941,25.9645646 C151.444118,22.7625225 150.583824,21.0772372 147.314706,21.0772372 L140.432353,21.0772372 L138.195588,33.3798198 C137.679412,36.4133333 138.195588,36.4133333 141.120588,36.4133333 L147.486765,36.4133333 C150.583824,36.4133333 152.476471,35.2336336 153.508824,31.0204204 L155.401471,31.0204204 L153.680882,39.2783183 L130.625,39.2783183 L135.958824,9.11171171 C136.475,6.24672673 136.647059,5.06702703 136.130882,4.22438438 C135.614706,3.55027027 134.582353,3.38174174 132.173529,2.87615616 C132.001471,2.87615616 131.657353,2.70762763 131.485294,2.70762763 L131.829412,1.19087087 L159.530882,1.19087087 L158.154412,9.78582583 L156.261765,9.78582583 L156.261765,10.1228829 Z" id="Shape"></path>
                    <path d="M167.617647,22.7625225 C168.305882,23.0995796 168.994118,23.6051652 169.682353,24.1107508 C172.435294,25.796036 175.360294,28.1554354 174.5,32.3686486 C173.467647,37.9300901 168.477941,40.120961 162.8,40.120961 C161.079412,40.120961 159.530882,39.9524324 158.326471,39.7839039 C157.122059,39.6153754 156.089706,39.2783183 155.401471,39.1097898 L156.261765,34.390991 C157.982353,35.7392192 160.219118,37.4245045 163.316176,37.4245045 C166.929412,37.4245045 168.477941,35.7392192 168.822059,33.7168769 C168.994118,32.3686486 168.477941,31.3574775 167.445588,30.5148348 C166.929412,30.0092492 166.413235,29.6721922 165.725,29.1666066 C165.036765,28.8295495 164.348529,28.323964 163.660294,27.8183784 C160.907353,26.1330931 157.982353,24.1107508 158.670588,20.0660661 C159.358824,16.0213814 162.8,12.4822823 169.682353,12.4822823 C171.230882,12.4822823 172.435294,12.6508108 173.639706,12.8193393 C174.5,12.9878679 175.188235,13.1563964 175.704412,13.3249249 L176.048529,13.4934535 L175.188235,18.0437237 C174.844118,17.7066667 174.5,17.5381381 174.155882,17.2010811 C173.811765,16.864024 173.295588,16.526967 172.779412,16.3584384 C171.747059,15.6843243 170.370588,15.1787387 168.822059,15.1787387 C166.929412,15.1787387 164.864706,15.8528529 164.348529,18.2122523 C164.176471,19.5604805 164.692647,20.4031231 165.725,21.2457658 C166.413235,21.9198799 167.101471,22.2569369 167.617647,22.7625225" id="Shape"></path>
                    <path d="M183.102941,13.3249249 L183.791176,8.94318318 L190.673529,3.7187988 L188.952941,13.3249249 L196.351471,13.3249249 L195.835294,15.8528529 L188.436765,15.8528529 L185.511765,32.0315916 C184.823529,35.9077477 184.823529,37.593033 189.125,37.593033 C189.813235,37.593033 190.673529,37.593033 191.361765,37.4245045 L191.017647,39.9524324 C189.641176,40.120961 188.264706,40.458018 187.060294,40.458018 C181.554412,40.458018 178.457353,39.6153754 179.489706,33.0427628 L182.586765,16.0213814 L178.113235,16.0213814 L178.629412,13.4934535 L183.102941,13.4934535 L183.102941,13.3249249 Z" id="Shape"></path>
                    <path d="M209.255882,24.7848649 L209.772059,22.0884084 C210.460294,18.5493093 210.976471,14.8416817 207.707353,14.8416817 C204.266176,14.8416817 203.405882,17.7066667 202.889706,20.0660661 L202.889706,20.4031231 L195.835294,20.4031231 C197.211765,16.526967 199.964706,12.4822823 208.051471,12.4822823 C216.310294,12.4822823 216.826471,16.6954955 215.794118,22.2569369 L212.697059,39.4468468 L206.675,39.4468468 L207.191176,36.4133333 C206.847059,36.7503904 206.502941,37.0874474 206.330882,37.255976 C205.814706,37.7615616 205.298529,38.0986186 204.610294,38.6042042 C203.233824,39.4468468 201.513235,40.120961 199.276471,40.120961 C194.802941,40.120961 192.05,36.9189189 192.566176,33.5483483 C194.114706,25.6275075 205.298529,24.9533934 209.255882,24.7848649 M199.448529,32.7057057 C198.932353,35.2336336 199.964706,36.9189189 202.029412,36.9189189 C205.298529,36.9189189 207.707353,34.0539339 208.395588,30.1777778 L208.911765,27.1442643 C206.330882,27.1442643 200.308824,27.6498498 199.448529,32.7057057 M199.448529,32.7057057 C198.932353,35.2336336 199.964706,36.9189189 202.029412,36.9189189 C205.298529,36.9189189 207.707353,34.0539339 208.395588,30.1777778 L208.911765,27.1442643 C206.330882,27.1442643 200.308824,27.6498498 199.448529,32.7057057 M209.255882,24.7848649 L209.772059,22.0884084 C210.460294,18.5493093 210.976471,14.8416817 207.707353,14.8416817 C204.266176,14.8416817 203.405882,17.7066667 202.889706,20.0660661 L202.889706,20.4031231 L195.835294,20.4031231 C197.211765,16.526967 199.964706,12.4822823 208.051471,12.4822823 C216.310294,12.4822823 216.826471,16.6954955 215.794118,22.2569369 L212.697059,39.4468468 L206.675,39.4468468 L207.191176,36.4133333 C206.847059,36.7503904 206.502941,37.0874474 206.330882,37.255976 C205.814706,37.7615616 205.298529,38.0986186 204.610294,38.6042042 C203.233824,39.4468468 201.513235,40.120961 199.276471,40.120961 C194.802941,40.120961 192.05,36.9189189 192.566176,33.5483483 C194.114706,25.6275075 205.298529,24.9533934 209.255882,24.7848649" id="Shape"></path>
                    <path d="M246.420588,0.1796997 L239.366176,39.6153754 L233.344118,39.6153754 L233.860294,36.7503904 C233.344118,37.0874474 233,37.4245045 232.655882,37.7615616 C232.139706,38.0986186 231.451471,38.6042042 230.763235,38.9412613 C229.386765,39.7839039 227.666176,40.2894895 225.429412,40.2894895 C217.858824,40.2894895 216.138235,34.0539339 217.342647,26.9757357 C218.547059,19.8975375 222.848529,12.6508108 230.419118,12.6508108 C234.892647,12.6508108 236.441176,14.8416817 237.301471,16.6954955 C237.473529,16.526967 237.473529,15.8528529 237.645588,15.1787387 L238.161765,12.1452252 C238.505882,9.95435435 238.85,7.93201201 238.85,7.93201201 C239.538235,4.22438438 238.85,3.21321321 235.925,3.04468468 C235.752941,3.04468468 235.408824,3.04468468 235.408824,3.04468468 L235.752941,1.69645646 L246.420588,0.1796997 Z M236.097059,24.7848649 C236.613235,21.5828228 236.957353,16.0213814 231.795588,16.0213814 C226.633824,16.0213814 225.085294,22.2569369 224.225,26.3016216 C223.364706,30.6833634 222.848529,37.0874474 228.010294,37.0874474 C233.344118,37.0874474 235.064706,30.1777778 235.580882,27.1442643 L236.097059,24.7848649 Z" id="Shape"></path>
                    <path d="M259.152941,12.6508108 C267.583824,12.6508108 270.680882,18.3807808 269.132353,26.4701502 C267.411765,35.5706907 262.766176,40.120961 254.163235,40.120961 C244.872059,40.120961 242.635294,34.2224625 244.183824,26.3016216 C245.904412,17.0325526 250.722059,12.6508108 259.152941,12.6508108 M262.594118,26.4701502 C263.454412,21.2457658 264.142647,14.8416817 258.808824,14.8416817 C253.302941,14.8416817 251.754412,21.5828228 250.722059,26.4701502 C249.861765,31.1889489 249.173529,38.0986186 254.507353,38.0986186 C260.013235,37.9300901 261.561765,32.0315916 262.594118,26.4701502 M262.594118,26.4701502 C263.454412,21.2457658 264.142647,14.8416817 258.808824,14.8416817 C253.302941,14.8416817 251.754412,21.5828228 250.722059,26.4701502 C249.861765,31.1889489 249.173529,38.0986186 254.507353,38.0986186 C260.013235,37.9300901 261.561765,32.0315916 262.594118,26.4701502 M259.152941,12.6508108 C267.583824,12.6508108 270.680882,18.3807808 269.132353,26.4701502 C267.411765,35.5706907 262.766176,40.120961 254.163235,40.120961 C244.872059,40.120961 242.635294,34.2224625 244.183824,26.3016216 C245.904412,17.0325526 250.722059,12.6508108 259.152941,12.6508108" id="Shape"></path>
                    <path d="M7.775,34.5595195 C7.43088235,36.7503904 9.49558824,36.7503904 12.7647059,36.7503904 C18.9588235,36.7503904 22.0558824,34.0539339 23.0882353,28.323964 C24.1205882,22.9310511 20.3352941,20.9087087 15.3455882,20.9087087 L10.1838235,20.9087087 L7.775,34.5595195 Z M30.8308824,10.796997 C29.7985294,16.1899099 25.6691176,18.3807808 22.7441176,19.2234234 C26.5294118,20.0660661 30.8308824,22.2569369 29.4544118,29.3351351 C28.5941176,34.390991 25.1529412,36.9189189 21.3676471,38.2671471 C19.475,38.9412613 17.5823529,39.2783183 15.6897059,39.4468468 C13.9691176,39.6153754 12.2485294,39.6153754 11.0441176,39.6153754 L0.204411765,39.6153754 L5.53823529,9.44876877 C6.05441176,6.58378378 6.22647059,5.40408408 5.71029412,4.56144144 C5.19411765,3.88732733 3.81764706,3.55027027 1.23676471,3.04468468 L1.40882353,1.69645646 L18.4426471,1.69645646 C25.325,1.69645646 32.2073529,3.21321321 30.8308824,10.796997 Z M10.7,18.0437237 L14.3132353,18.0437237 C19.1308824,18.0437237 23.0882353,16.526967 24.1205882,10.9655255 C24.9808824,6.0781982 22.5720588,4.39291291 17.4102941,4.39291291 C13.9691176,4.39291291 13.1088235,4.56144144 12.5926471,7.2578979 L10.7,18.0437237 Z" id="Shape"></path>
                    <path d="M46.3161765,24.7848649 L46.8323529,22.0884084 C47.5205882,18.5493093 48.0367647,14.8416817 44.7676471,14.8416817 C41.3264706,14.8416817 40.4661765,17.7066667 39.95,20.0660661 C39.95,20.2345946 39.95,20.4031231 39.95,20.5716517 L32.8955882,20.5716517 C34.2720588,16.6954955 37.025,12.6508108 45.1117647,12.6508108 C53.3705882,12.6508108 53.8867647,16.864024 52.8544118,22.4254655 L49.7573529,39.6153754 L43.7352941,39.6153754 L44.2514706,36.5818619 C43.9073529,36.9189189 43.5632353,37.255976 43.3911765,37.4245045 C42.875,37.7615616 42.3588235,38.2671471 41.6705882,38.7727327 C40.2941176,39.6153754 38.5735294,40.2894895 36.3367647,40.2894895 C31.8632353,40.2894895 29.1102941,37.0874474 29.6264706,33.7168769 C31.3470588,25.6275075 42.5308824,24.9533934 46.3161765,24.7848649 M36.5088235,32.7057057 C35.9926471,35.2336336 37.025,36.9189189 39.0897059,36.9189189 C42.3588235,36.9189189 44.7676471,34.0539339 45.4558824,30.1777778 L45.9720588,27.1442643 C43.5632353,27.1442643 37.5411765,27.6498498 36.5088235,32.7057057 M36.5088235,32.7057057 C35.9926471,35.2336336 37.025,36.9189189 39.0897059,36.9189189 C42.3588235,36.9189189 44.7676471,34.0539339 45.4558824,30.1777778 L45.9720588,27.1442643 C43.5632353,27.1442643 37.5411765,27.6498498 36.5088235,32.7057057 M46.3161765,24.7848649 L46.8323529,22.0884084 C47.5205882,18.5493093 48.0367647,14.8416817 44.7676471,14.8416817 C41.3264706,14.8416817 40.4661765,17.7066667 39.95,20.0660661 C39.95,20.2345946 39.95,20.4031231 39.95,20.5716517 L32.8955882,20.5716517 C34.2720588,16.6954955 37.025,12.6508108 45.1117647,12.6508108 C53.3705882,12.6508108 53.8867647,16.864024 52.8544118,22.4254655 L49.7573529,39.6153754 L43.7352941,39.6153754 L44.2514706,36.5818619 C43.9073529,36.9189189 43.5632353,37.255976 43.3911765,37.4245045 C42.875,37.7615616 42.3588235,38.2671471 41.6705882,38.7727327 C40.2941176,39.6153754 38.5735294,40.2894895 36.3367647,40.2894895 C31.8632353,40.2894895 29.1102941,37.0874474 29.6264706,33.7168769 C31.3470588,25.6275075 42.5308824,24.9533934 46.3161765,24.7848649" id="Shape"></path>
                    <path d="M73.6735294,24.9533934 C74.5338235,20.4031231 75.05,16.6954955 71.4367647,16.6954955 C67.8235294,16.6954955 63.5220588,21.7513514 62.8338235,25.796036 L60.425,39.6153754 L54.4029412,39.6153754 L57.8441176,20.7401802 C58.5323529,17.0325526 57.8441176,16.0213814 54.575,15.8528529 L54.0588235,15.8528529 L54.2308824,14.5046246 L65.0705882,12.6508108 L63.8661765,19.5604805 C65.7588235,16.864024 69.5441176,12.6508108 74.5338235,12.6508108 C79.8676471,12.6508108 80.9,16.3584384 80.2117647,20.7401802 L76.7705882,39.6153754 L70.7485294,39.6153754 L73.6735294,24.9533934 Z" id="Shape"></path>
                    <path d="M98.2779412,20.5716517 C98.7941176,18.0437237 98.6220588,14.8416817 95.3529412,14.8416817 C91.5676471,14.8416817 90.0191176,18.8863664 88.9867647,24.2792793 C87.4382353,32.5371772 90.5352941,36.9189189 95.6970588,36.9189189 C97.4176471,36.9189189 99.6544118,36.5818619 101.030882,36.2448048 C101.030882,36.2448048 101.202941,36.2448048 101.375,36.0762763 L100.858824,38.7727327 C99.6544118,39.1097898 98.7941176,39.4468468 97.5897059,39.7839039 C96.3852941,39.9524324 94.8367647,40.120961 92.4279412,40.120961 C84.3411765,40.120961 80.5558824,34.5595195 82.1044118,25.9645646 C83.4808824,18.2122523 87.7823529,12.6508108 96.0411765,12.6508108 C102.235294,12.6508108 105.848529,15.6843243 105.332353,20.0660661 C105.332353,20.2345946 105.332353,20.4031231 105.332353,20.5716517 L98.2779412,20.5716517 Z" id="Shape"></path>
                    <path d="M119.441176,12.6508108 C127.872059,12.6508108 130.969118,18.3807808 129.420588,26.4701502 C127.7,35.5706907 123.054412,40.120961 114.451471,40.120961 C105.160294,40.120961 103.095588,34.2224625 104.472059,26.3016216 C106.192647,17.0325526 111.010294,12.6508108 119.441176,12.6508108 M122.882353,26.4701502 C123.742647,21.2457658 124.430882,14.8416817 119.097059,14.8416817 C113.591176,14.8416817 111.870588,21.5828228 111.010294,26.4701502 C110.15,31.1889489 109.461765,38.0986186 114.795588,38.0986186 C120.301471,37.9300901 121.85,32.0315916 122.882353,26.4701502 M122.882353,26.4701502 C123.742647,21.2457658 124.430882,14.8416817 119.097059,14.8416817 C113.591176,14.8416817 111.870588,21.5828228 111.010294,26.4701502 C110.15,31.1889489 109.461765,38.0986186 114.795588,38.0986186 C120.301471,37.9300901 121.85,32.0315916 122.882353,26.4701502 M119.441176,12.6508108 C127.872059,12.6508108 130.969118,18.3807808 129.420588,26.4701502 C127.7,35.5706907 123.054412,40.120961 114.451471,40.120961 C105.160294,40.120961 103.095588,34.2224625 104.472059,26.3016216 C106.192647,17.0325526 111.010294,12.6508108 119.441176,12.6508108" id="Shape"></path>
                </g>
                <rect id="Rectangle-path" fill="#C0233D" x="0.204411765" y="0.161201201" width="61.425" height="60.1646847"></rect>
                <polygon id="Shape" fill="#DB8916" points="61.6294118 31.8445646 35.6485294 10.4414414 35.6485294 10.4414414 35.6485294 50.3827027 61.6294118 50.3827027"></polygon>
                <path d="M35.6485294,16.1714114 L35.6485294,10.4414414 C33.7558824,12.4637838 29.2823529,15.8343544 23.6044118,16.676997 L23.6044118,21.0587387 L19.1308824,22.9125526 L19.1308824,26.7887087 L0.204411765,34.0354354 L0.204411765,50.3827027 L40.1220588,50.3827027 L40.1220588,14.3175976 L35.6485294,16.1714114 Z" id="Shape" fill="#FFFFFF"></path>
                <path d="M23.6044118,25.1034234 L19.9911765,26.4516517 C19.6470588,26.6201802 19.3029412,27.1257658 19.3029412,27.4628228 L19.3029412,30.1592793 C19.3029412,30.6648649 18.9588235,31.0019219 18.6147059,31.1704505 L0.204411765,38.0801201 L0.204411765,42.2933333 L18.6147059,35.3836637 C18.9588235,35.2151351 19.3029412,34.7095495 19.3029412,34.3724925 L19.3029412,31.676036 C19.3029412,31.1704505 19.6470588,30.8333934 19.9911765,30.6648649 L23.6044118,29.3166366 L23.6044118,25.1034234 Z" id="Shape" fill="#C0233D"></path>
                <path d="M23.6044118,33.1927928 L19.9911765,34.541021 C19.6470588,34.7095495 19.3029412,35.2151351 19.3029412,35.5521922 L19.3029412,38.2486486 C19.3029412,38.7542342 18.9588235,39.0912913 18.6147059,39.2598198 L0.204411765,46.1694895 L0.204411765,50.2141742 L18.6147059,43.135976 C18.9588235,42.9674474 19.3029412,42.4618619 19.3029412,42.1248048 L19.3029412,39.4283483 C19.3029412,38.9227628 19.6470588,38.5857057 19.9911765,38.4171772 L23.6044118,37.0689489 L23.6044118,33.1927928 Z" id="Shape" fill="#C0233D"></path>
                <rect id="Rectangle-path" fill="#0E498E" x="0.204411765" y="50.3827027" width="61.425" height="9.94318318"></rect>
                <path d="M16.8941176,55.1015015 L16.8941176,55.6070871 C16.8941176,55.9441441 16.55,56.4497297 16.2058824,56.7867868 C16.0338235,56.9553153 15.6897059,57.1238438 15.5176471,57.1238438 C15.3455882,57.1238438 15.3455882,56.9553153 15.3455882,56.7867868 C15.3455882,56.4497297 15.5176471,55.7756156 15.6897059,55.4385586 C15.8617647,55.1015015 16.2058824,54.7644444 16.55,54.7644444 C16.55,54.932973 16.7220588,54.932973 16.8941176,55.1015015 Z M18.2705882,52.2365165 L17.2382353,52.405045 L16.8941176,54.4273874 C16.7220588,54.2588589 16.55,54.2588589 16.2058824,54.2588589 C15.1735294,54.2588589 14.1411765,55.6070871 14.1411765,56.9553153 C14.1411765,57.6294294 14.3132353,57.9664865 14.8294118,57.9664865 C15.1735294,57.9664865 15.5176471,57.797958 15.8617647,57.4609009 C16.0338235,57.2923724 16.2058824,57.1238438 16.3779412,56.9553153 C16.3779412,56.9553153 16.55,56.7867868 16.55,56.6182583 L16.3779412,57.6294294 L17.2382353,57.6294294 L18.2705882,52.2365165 Z" id="Shape" fill="#FFFFFF"></path>
                <path d="M20.8514706,55.27003 L19.6470588,56.1126727 C19.8191176,55.6070871 19.9911765,55.4385586 20.1632353,55.1015015 C20.3352941,54.932973 20.5073529,54.7644444 20.6794118,54.7644444 C20.6794118,54.932973 20.8514706,54.932973 20.8514706,55.27003 M21.7117647,54.932973 C21.7117647,54.4273874 21.3676471,54.2588589 20.6794118,54.2588589 C19.475,54.2588589 18.6147059,55.27003 18.6147059,56.7867868 C18.6147059,57.6294294 18.9588235,58.135015 19.6470588,58.135015 C19.9911765,58.135015 20.3352941,57.9664865 20.6794118,57.797958 C20.8514706,57.797958 20.8514706,57.6294294 21.0235294,57.4609009 C21.1955882,57.2923724 21.3676471,57.2923724 21.5397059,57.1238438 L21.1955882,56.6182583 C20.6794118,56.9553153 20.5073529,57.1238438 20.3352941,57.1238438 C20.1632353,57.1238438 19.9911765,57.2923724 19.8191176,57.2923724 C19.6470588,57.2923724 19.475,57.2923724 19.475,57.1238438 C19.475,57.1238438 19.475,56.9553153 19.3029412,56.7867868 L20.8514706,55.9441441 C21.5397059,55.6070871 21.7117647,55.4385586 21.7117647,54.932973" id="Shape" fill="#FFFFFF"></path>
                <path d="M24.9808824,54.4273874 C24.6367647,54.2588589 24.2926471,54.2588589 23.9485294,54.2588589 C23.0882353,54.2588589 22.5720588,54.5959159 22.5720588,55.27003 C22.5720588,55.4385586 22.5720588,55.6070871 22.7441176,55.7756156 C22.7441176,55.9441441 22.9161765,55.9441441 23.0882353,56.1126727 C23.0882353,56.1126727 23.2602941,56.2812012 23.6044118,56.4497297 C23.7764706,56.6182583 23.9485294,56.7867868 23.7764706,56.7867868 C23.7764706,56.9553153 23.6044118,57.1238438 23.2602941,57.1238438 C23.0882353,57.1238438 22.7441176,57.1238438 22.4,56.9553153 L22.0558824,57.6294294 C22.4,57.6294294 22.4,57.797958 22.7441176,57.797958 C22.9161765,57.797958 23.2602941,57.797958 23.2602941,57.797958 C23.9485294,57.797958 24.4647059,57.2923724 24.6367647,56.7867868 C24.6367647,56.4497297 24.4647059,56.1126727 23.9485294,55.7756156 C23.6044118,55.4385586 23.4323529,55.4385586 23.4323529,55.27003 L23.4323529,55.1015015 C23.4323529,54.932973 23.6044118,54.7644444 23.9485294,54.7644444 C24.1205882,54.7644444 24.2926471,54.7644444 24.8088235,54.932973 L24.9808824,54.4273874 Z" id="Shape" fill="#FFFFFF"></path>
                <path d="M28.0779412,55.1015015 L28.0779412,55.6070871 C28.0779412,55.9441441 27.7338235,56.4497297 27.2176471,56.7867868 C27.0455882,56.9553153 26.7014706,57.1238438 26.5294118,57.1238438 C26.3573529,57.1238438 26.3573529,56.9553153 26.3573529,56.7867868 C26.3573529,56.4497297 26.5294118,55.7756156 26.7014706,55.4385586 C26.8735294,55.1015015 27.2176471,54.7644444 27.5617647,54.7644444 C27.9058824,54.932973 28.0779412,54.932973 28.0779412,55.1015015 Z M29.6264706,52.2365165 L28.5941176,52.405045 L28.25,54.4273874 C27.9058824,54.2588589 27.7338235,54.2588589 27.5617647,54.2588589 C26.5294118,54.2588589 25.4970588,55.6070871 25.4970588,56.9553153 C25.4970588,57.6294294 25.6691176,57.9664865 26.1852941,57.9664865 C26.5294118,57.9664865 26.8735294,57.797958 27.2176471,57.4609009 C27.3897059,57.2923724 27.5617647,57.1238438 27.7338235,56.9553153 C27.7338235,56.9553153 27.9058824,56.7867868 27.9058824,56.6182583 L27.7338235,57.6294294 L28.5941176,57.6294294 L29.6264706,52.2365165 Z" id="Shape" fill="#FFFFFF"></path>
                <path d="M32.2073529,55.27003 L31.0029412,56.1126727 C31.175,55.6070871 31.3470588,55.4385586 31.5191176,55.1015015 C31.6911765,54.932973 31.8632353,54.7644444 32.0352941,54.7644444 C32.0352941,54.932973 32.2073529,54.932973 32.2073529,55.27003 M33.0676471,54.932973 C33.0676471,54.4273874 32.7235294,54.2588589 32.0352941,54.2588589 C30.8308824,54.2588589 29.9705882,55.27003 29.9705882,56.7867868 C29.9705882,57.6294294 30.3147059,58.135015 31.0029412,58.135015 C31.3470588,58.135015 31.6911765,57.9664865 32.0352941,57.797958 C32.2073529,57.797958 32.2073529,57.6294294 32.3794118,57.4609009 C32.5514706,57.2923724 32.7235294,57.2923724 32.8955882,57.1238438 L32.5514706,56.6182583 C32.0352941,56.9553153 31.8632353,57.1238438 31.6911765,57.1238438 C31.5191176,57.1238438 31.3470588,57.2923724 31.175,57.2923724 C31.0029412,57.2923724 30.8308824,57.2923724 30.8308824,57.1238438 C30.8308824,57.1238438 30.8308824,56.9553153 30.6588235,56.7867868 L32.2073529,55.9441441 C32.8955882,55.6070871 33.0676471,55.4385586 33.0676471,54.932973" id="Shape" fill="#FFFFFF"></path>
                <polygon id="Shape" fill="#FFFFFF" points="38.4014706 54.2588589 37.8852941 54.2588589 35.9926471 54.932973 36.1647059 55.6070871 37.1970588 55.27003 36.6808824 57.9664865 37.7132353 57.9664865"></polygon>
                <path d="M41.6705882,56.6182583 C41.6705882,57.1238438 41.1544118,57.4609009 40.8102941,57.4609009 C40.2941176,57.4609009 40.1220588,57.2923724 40.1220588,56.7867868 C40.1220588,56.4497297 40.2941176,56.1126727 40.6382353,55.9441441 L41.1544118,55.6070871 L41.6705882,56.1126727 C41.6705882,56.1126727 41.6705882,56.2812012 41.6705882,56.6182583 M42.0147059,53.9218018 C42.0147059,54.0903303 41.8426471,54.2588589 41.6705882,54.4273874 L41.1544118,54.7644444 L40.8102941,54.4273874 C40.8102941,54.2588589 40.6382353,54.0903303 40.6382353,54.0903303 C40.6382353,53.7532733 40.9823529,53.5847447 41.3264706,53.5847447 C41.8426471,53.4162162 42.0147059,53.5847447 42.0147059,53.9218018 M42.875,53.7532733 C42.875,53.0791592 42.3588235,52.7421021 41.4985294,52.7421021 C40.4661765,52.7421021 39.7779412,53.2476877 39.6058824,53.9218018 C39.6058824,54.2588589 39.7779412,54.5959159 39.95,54.7644444 L40.2941176,55.1015015 L39.6058824,55.6070871 C39.0897059,55.9441441 38.7455882,56.4497297 38.7455882,56.9553153 C38.7455882,57.6294294 39.2617647,58.135015 40.2941176,58.135015 C41.4985294,58.135015 42.5308824,57.6294294 42.5308824,56.7867868 C42.5308824,56.4497297 42.3588235,55.9441441 42.0147059,55.7756156 L41.4985294,55.27003 L42.0147059,54.932973 C42.3588235,54.5959159 42.5308824,54.5959159 42.7029412,54.2588589 C42.875,53.9218018 42.875,53.9218018 42.875,53.7532733" id="Shape" fill="#FFFFFF"></path>
                <path d="M46.4882353,53.9218018 L44.0794118,53.9218018 L43.5632353,56.6182583 L44.0794118,56.6182583 C44.2514706,56.6182583 44.5955882,56.6182583 44.7676471,56.7867868 C44.9397059,56.9553153 44.9397059,57.1238438 44.9397059,57.2923724 C44.9397059,57.9664865 44.4235294,58.4720721 43.9073529,58.4720721 C43.7352941,58.4720721 43.3911765,58.4720721 43.0470588,58.3035435 L42.7029412,58.9776577 C43.2191176,59.1461862 43.3911765,59.1461862 43.7352941,59.1461862 C44.9397059,59.1461862 45.8,58.135015 45.9720588,57.1238438 C45.9720588,56.6182583 45.8,56.1126727 45.2838235,55.9441441 C45.1117647,55.9441441 44.9397059,55.9441441 44.5955882,55.9441441 L44.7676471,54.7644444 L46.1441176,54.7644444 L46.4882353,53.9218018 Z" id="Shape" fill="#FFFFFF"></path>
                <path d="M49.9294118,53.9218018 L47.5205882,53.9218018 L47.0044118,56.6182583 L47.5205882,56.6182583 C47.6926471,56.6182583 48.0367647,56.6182583 48.2088235,56.7867868 C48.3808824,56.9553153 48.3808824,57.1238438 48.3808824,57.2923724 C48.3808824,57.9664865 47.8647059,58.4720721 47.3485294,58.4720721 C47.1764706,58.4720721 46.8323529,58.4720721 46.4882353,58.3035435 L46.1441176,58.9776577 C46.6602941,59.1461862 46.8323529,59.1461862 47.1764706,59.1461862 C48.3808824,59.1461862 49.2411765,58.135015 49.4132353,57.1238438 C49.4132353,56.6182583 49.2411765,56.1126727 48.725,55.9441441 C48.5529412,55.9441441 48.3808824,55.9441441 48.0367647,55.9441441 L48.2088235,54.7644444 L49.5852941,54.7644444 L49.9294118,53.9218018 Z" id="Shape" fill="#FFFFFF"></path>
            </g>
            <path d="M263.152073,72 L256,72 L258.847927,58 L266,58 L265.603687,59.9630643 L260.635945,59.9630643 L259.861751,63.7455541 L264.48848,63.7455541 L264.110599,65.6894665 L259.465438,65.6894665 L258.580645,70.0560876 L263.548387,70.0560876 L263.152073,72 Z M271.459045,72 L270.374779,60.374829 L270.318209,60.374829 C270.261638,61.1281388 270.088785,62.2133992 269.799646,63.630643 L268.06482,72 L266,72 L268.913377,58 L271.958751,58 L272.986447,69.002736 L273.043017,69.002736 L278.756629,58 L282,58 L279.124337,72 L276.98409,72 L278.700059,63.6497948 C278.945199,62.4623743 279.215477,61.37073 279.510902,60.374829 L279.454331,60.374829 L273.391868,72 L271.459045,72 Z M286,65 L286.805139,65 C287.821561,65 288.608134,64.7422205 289.164882,64.2266537 C289.72163,63.7110869 290,62.979901 290,62.033074 C290,61.3261962 289.832978,60.8106371 289.498929,60.4863813 C289.16488,60.1621255 288.652394,60 287.961456,60 L286.942184,60 L286,65 Z M292,61.8399453 C292,63.4231726 291.48823,64.6393027 290.464673,65.4883721 C289.441118,66.3374416 288.014502,66.7619699 286.184783,66.7619699 L285.188406,66.7619699 L284.146739,72 L282,72 L284.798913,58 L287.824275,58 C289.207133,58 290.248789,58.3207903 290.949275,58.9623803 C291.649762,59.6039704 292,60.5631491 292,61.8399453 Z M296.249097,66.4076608 L295.138989,72 L293,72 L295.788808,58 L298.83935,58 C300.181113,58 301.209984,58.3016386 301.925993,58.9049247 C302.642001,59.508211 303,60.4354703 303,61.6867305 C303,62.7400874 302.739774,63.6290434 302.219314,64.3536252 C301.698854,65.078207 300.924193,65.6064735 299.895307,65.9384405 L302.142599,72 L299.796029,72 L297.927797,66.4076608 L296.249097,66.4076608 Z M297,64 L298.067245,64 C299.05062,64 299.785247,63.7907971 300.27115,63.372385 C300.757053,62.9539728 301,62.3793621 301,61.6485356 C301,61.0627586 300.829359,60.6415633 300.488069,60.3849373 C300.146781,60.1283112 299.617502,60 298.900217,60 L297.867679,60 L297,64 Z M311.152073,72 L304,72 L306.847927,58 L314,58 L313.603687,59.9630643 L308.635945,59.9630643 L307.861751,63.7455541 L312.48848,63.7455541 L312.110599,65.6894665 L307.465438,65.6894665 L306.580645,70.0560876 L311.548387,70.0560876 L311.152073,72 Z M322.534483,67.8270127 C322.534483,69.1310777 322.073121,70.15258 321.150383,70.8915502 C320.227646,71.6305205 318.955309,72 317.333334,72 C315.99233,72 314.88123,71.7671347 314,71.3013972 L314,69.2149036 C315.104731,69.8172574 316.222217,70.1184298 317.35249,70.1184298 C318.227335,70.1184298 318.916984,69.9367949 319.421456,69.5735196 C319.925929,69.2102444 320.178161,68.7057029 320.178161,68.0598802 C320.178161,67.6314017 320.047255,67.2510551 319.78544,66.918829 C319.523626,66.5866029 318.974461,66.1627881 318.137931,65.6473719 C317.46743,65.231313 316.972543,64.8525189 316.653257,64.510978 C316.33397,64.1694372 316.08972,63.7953003 315.920498,63.3885562 C315.751277,62.9818121 315.666666,62.5331583 315.666666,62.0425815 C315.666666,61.2477228 315.863025,60.5429172 316.255747,59.9281437 C316.64847,59.3133702 317.204019,58.838325 317.922414,58.502994 C318.640808,58.167663 319.450187,58 320.350574,58 C321.659649,58 322.876112,58.2856481 324,58.8569527 L323.176245,60.6360612 C322.148143,60.1516942 321.206262,59.9095143 320.350574,59.9095143 C319.65453,59.9095143 319.095788,60.0911492 318.674329,60.4544245 C318.252872,60.8176998 318.042145,61.2911924 318.042145,61.8749168 C318.042145,62.166779 318.090038,62.4229308 318.185824,62.6433799 C318.281609,62.863829 318.430076,63.0687505 318.631226,63.2581504 C318.832376,63.4475503 319.26181,63.7440654 319.91954,64.1477046 C320.909328,64.7500585 321.592591,65.3322216 321.969349,65.8942116 C322.346107,66.4562015 322.534483,67.1004621 322.534483,67.8270127 Z M331.526574,68.1174863 L327.16435,68.1174863 L325.284546,72 L323,72 L330.042518,58 L332.50695,58 L334,72 L331.895339,72 L331.526574,68.1174863 Z M331,66 C330.780821,63.4121177 330.656165,61.8460369 330.626027,61.3017107 C330.59589,60.7573845 330.580822,60.3234853 330.580822,60 C330.279451,60.864701 329.890414,61.8195904 329.413699,62.8646967 L328,66 L331,66 Z M343.534483,67.8270127 C343.534483,69.1310777 343.073121,70.15258 342.150383,70.8915502 C341.227645,71.6305205 339.955308,72 338.333333,72 C336.99233,72 335.88123,71.7671347 335,71.3013972 L335,69.2149036 C336.104731,69.8172574 337.222216,70.1184298 338.35249,70.1184298 C339.227335,70.1184298 339.916983,69.9367949 340.421455,69.5735196 C340.925928,69.2102444 341.178161,68.7057029 341.178161,68.0598802 C341.178161,67.6314017 341.047255,67.2510551 340.78544,66.918829 C340.523626,66.5866029 339.974461,66.1627881 339.137931,65.6473719 C338.467429,65.231313 337.972543,64.8525189 337.653257,64.510978 C337.33397,64.1694372 337.08972,63.7953003 336.920498,63.3885562 C336.751276,62.9818121 336.666666,62.5331583 336.666666,62.0425815 C336.666666,61.2477228 336.863024,60.5429172 337.255747,59.9281437 C337.648469,59.3133702 338.204019,58.838325 338.922413,58.502994 C339.640808,58.167663 340.450187,58 341.350574,58 C342.659649,58 343.876112,58.2856481 345,58.8569527 L344.176245,60.6360612 C343.148143,60.1516942 342.206262,59.9095143 341.350574,59.9095143 C340.65453,59.9095143 340.095788,60.0911492 339.674329,60.4544245 C339.252871,60.8176998 339.042145,61.2911924 339.042145,61.8749168 C339.042145,62.166779 339.090038,62.4229308 339.185823,62.6433799 C339.281609,62.863829 339.430076,63.0687505 339.631226,63.2581504 C339.832376,63.4475503 340.26181,63.7440654 340.91954,64.1477046 C341.909328,64.7500585 342.592591,65.3322216 342.969349,65.8942116 C343.346107,66.4562015 343.534483,67.1004621 343.534483,67.8270127 Z" id="Empresas-Copy" fill="#333333"></path>
        </g>
    </g>
</svg>