<?xml version="1.0" encoding="UTF-8"?>
<svg width="206px" height="65px" viewBox="0 0 206 65" version="1.1" xmlns="http://www.w3.org/2000/svg" xmlns:xlink="http://www.w3.org/1999/xlink">
    <!-- Generator: Sketch 48.2 (47327) - http://www.bohemiancoding.com/sketch -->
    <title>Artboard</title>
    <desc>Created with Sketch.</desc>
    <defs>
        <rect id="path-1" x="0" y="0" width="148" height="28"></rect>
    </defs>
    <g id="Page-1" stroke="none" stroke-width="1" fill="none" fill-rule="evenodd">
        <g id="Artboard">
            <g id="Group" transform="translate(29.000000, 12.000000)">
                <g id="g18-copy-5">
                    <mask id="mask-2" fill="white">
                        <use xlink:href="#path-1"></use>
                    </mask>
                    <g id="Mask"></g>
                    <g id="g18-copy-3" mask="url(#mask-2)">
                        <g transform="translate(77.500000, 13.500000) scale(-1, 1) rotate(-180.000000) translate(-77.500000, -13.500000) translate(1.000000, 1.000000)">
                            <g id="g24" stroke-width="1" fill="none" fill-rule="evenodd" transform="translate(87.545699, 4.310737)">
                                <path d="M10.8491817,11.904756 C11.1712172,13.7170071 10.2998427,14.1614513 8.7597881,14.1614513 L6.90007958,14.1614513 C5.7217526,14.1614513 5.42829547,14.0803501 5.23433327,13.0406681 L4.41429389,8.65252546 L7.23719806,8.65252546 C8.04691748,8.65252546 8.53116144,8.89434081 8.84764001,9.21973748 C9.00720237,9.38342787 9.12495568,9.57067976 9.22180447,9.76562014 C9.30542256,9.93055061 9.37104688,10.0999454 9.43164353,10.2591715 C9.43878811,10.2767806 9.46763105,10.3417607 9.47556948,10.3606099 L10.2429506,10.3737548 L9.34934851,5.58109841 L8.57244125,5.58109841 C8.79577563,6.84052239 8.41182044,7.50222841 7.03979587,7.50222841 L4.20127947,7.50222841 L3.27989287,2.56101063 C3.05391235,1.35317393 3.31191118,1.32490013 4.48653357,1.32490013 L7.13373391,1.32490013 C8.45468794,1.32490013 9.18184773,1.78620943 9.64492256,3.48412525 L10.4149499,3.48883755 L9.72245452,0.174355072 L0.103993376,0.174355072 L2.35162629,12.2318888 C2.56146535,13.3494477 2.63740962,13.873753 2.42016137,14.1711239 C2.21720229,14.4484055 1.74777672,14.5391793 0.794901023,14.692453 C0.747270469,14.6989014 0.585591199,14.7299034 0.535843732,14.7385839 L0.664181613,15.3119963 L12.1889234,15.3119963 L11.6255598,11.904756 L10.8491817,11.904756 Z" id="path26" fill="#FFFFFF" fill-rule="nonzero"></path>
                            </g>
                            <g id="g28" stroke-width="1" fill="none" fill-rule="evenodd" transform="translate(97.857899, 4.008331)">
                                <path d="M5.29228377,7.19245674 C5.56563023,7.02727825 5.86120428,6.86011563 6.15492603,6.68600858 C7.33060687,5.97990774 8.50178927,5.09870778 8.1760492,3.35664516 C7.76219261,1.13119983 5.63019609,0.231398694 3.25898835,0.231398694 C2.5289178,0.231398694 1.91183751,0.297866915 1.41145208,0.382440286 C0.935940385,0.462301357 0.460957917,0.583829075 0.200048327,0.651289358 L0.571037419,2.51611978 C1.28628957,1.98983036 2.2492206,1.31349141 3.53762709,1.31349141 C5.01734963,1.31349141 5.67174052,2.0141359 5.81383834,2.76859981 C5.91306866,3.29364915 5.67782665,3.69766681 5.26397005,4.05927377 C5.0559833,4.24106932 4.80698135,4.41071209 4.53416412,4.57985883 C4.25817152,4.74776549 3.9631267,4.91443208 3.66887573,5.08705104 C2.49637026,5.779263 1.30745871,6.60093918 1.60170968,8.1760872 C1.90707446,9.81323916 3.3587479,11.211552 6.1935597,11.211552 C6.80561232,11.211552 7.36156673,11.1386353 7.8143216,11.055302 C8.17313844,10.9873457 8.46712481,10.9144291 8.66929005,10.8648259 C8.70448373,10.8536652 8.81403401,10.8266315 8.84499387,10.818695 L8.51766612,9.01834869 C8.34778381,9.14037244 8.23558739,9.22866604 8.09084343,9.32812036 C7.93419183,9.43848737 7.74314039,9.56398334 7.5176891,9.6830309 C7.06969728,9.92038197 6.49971832,10.1284672 5.84321051,10.1284672 C5.08720778,10.1284672 4.17031961,9.86383438 3.998585,8.94220785 C3.90358851,8.43402358 4.14174128,8.05034322 4.55639171,7.69915291 C4.76464308,7.52306173 5.01734963,7.35887531 5.29228377,7.19245674" id="path30" fill="#FFFFFF" fill-rule="nonzero"></path>
                            </g>
                            <g id="g32" stroke-width="1" fill="none" fill-rule="evenodd" transform="translate(107.494592, 4.062721)">
                                <path d="M2.11691351,10.912693 L2.4394782,12.6542596 L5.32165595,14.7338716 L4.60904994,10.912693 L7.73123275,10.912693 L7.5457382,9.91914189 L4.42355539,9.91914189 L3.21929622,3.45857963 C2.92769138,1.89781652 2.92107603,1.25917596 4.69954799,1.25917596 C4.97606982,1.25917596 5.3319759,1.28992991 5.61934691,1.35143782 L5.44417232,0.360118868 C4.84535041,0.260912569 4.32009124,0.177083245 3.80012436,0.177083245 C1.50406705,0.177083245 0.177820735,0.520833074 0.663652385,3.11830202 L1.93194819,9.91914189 L0.0714458309,9.91914189 L0.257469606,10.912693 L2.11691351,10.912693 Z" id="path34" fill="#FFFFFF" fill-rule="nonzero"></path>
                            </g>
                            <g id="g36" stroke-width="1" fill="none" fill-rule="evenodd" transform="translate(113.322323, 4.146625)">
                                <path d="M7.14458309,6.20039374 L7.38273586,7.30158367 C7.65475925,8.74503533 7.91196424,10.2145286 6.48860452,10.2145286 C5.02555267,10.2145286 4.66170816,9.06695977 4.47065672,8.10019438 C4.4648352,8.06944043 4.45028142,7.97742659 4.4441953,7.94592859 L1.48422098,7.93600796 C2.06716604,9.51537225 3.17325335,11.0731592 6.60556399,11.0731592 C10.0397269,11.0731592 10.2657074,9.39657271 9.85132163,7.17335953 L8.57720431,0.338541498 L6.08506788,0.338541498 L6.31237147,1.5605151 C6.15651371,1.41492985 6.05675416,1.3244041 5.94402852,1.22643788 C5.74715556,1.05803519 5.51085509,0.874999565 5.23486249,0.707340918 C4.67890808,0.370039498 3.95677596,0.0930059061 3.02559863,0.0930059061 C1.14154561,0.0930059061 0.00661535472,1.3668148 0.259321905,2.72098079 C0.846500789,5.86582049 5.54551955,6.14979853 7.14458309,6.20039374 M3.05867541,3.08407585 C2.86735935,2.06646723 3.27989287,1.3983128 4.11025219,1.3983128 C5.45713841,1.3983128 6.49865986,2.55257809 6.77862167,4.06200195 L7.00910063,5.29761641 C5.97710529,5.26314222 3.42913527,5.0753943 3.05867541,3.08407585 M3.05867541,3.08407585 C2.86735935,2.06646723 3.27989287,1.3983128 4.11025219,1.3983128 C5.45713841,1.3983128 6.49865986,2.55257809 6.77862167,4.06200195 L7.00910063,5.29761641 C5.97710529,5.26314222 3.42913527,5.0753943 3.05867541,3.08407585 M7.14458309,6.20039374 L7.38273586,7.30158367 C7.65475925,8.74503533 7.91196424,10.2145286 6.48860452,10.2145286 C5.02555267,10.2145286 4.66170816,9.06695977 4.47065672,8.10019438 C4.4648352,8.06944043 4.45028142,7.97742659 4.4441953,7.94592859 L1.48422098,7.93600796 C2.06716604,9.51537225 3.17325335,11.0731592 6.60556399,11.0731592 C10.0397269,11.0731592 10.2657074,9.39657271 9.85132163,7.17335953 L8.57720431,0.338541498 L6.08506788,0.338541498 L6.31237147,1.5605151 C6.15651371,1.41492985 6.05675416,1.3244041 5.94402852,1.22643788 C5.74715556,1.05803519 5.51085509,0.874999565 5.23486249,0.707340918 C4.67890808,0.370039498 3.95677596,0.0930059061 3.02559863,0.0930059061 C1.14154561,0.0930059061 0.00661535472,1.3668148 0.259321905,2.72098079 C0.846500789,5.86582049 5.54551955,6.14979853 7.14458309,6.20039374" id="path38" fill="#FFFFFF" fill-rule="nonzero"></path>
                            </g>
                            <g id="g40" stroke-width="1" fill="none" fill-rule="evenodd" transform="translate(123.734256, 4.197022)">
                                <path d="M7.93842566,6.20039374 C8.17657843,7.47122644 8.32661467,9.7177531 6.13269844,9.7177531 C3.99144042,9.7177531 3.30053277,7.20386546 3.0062818,5.62400514 C2.67921866,3.87326196 2.41195833,1.3479656 4.57597316,1.3479656 C6.81328613,1.3479656 7.54520897,4.08605947 7.76880796,5.28521562 L7.93842566,6.20039374 Z M12.2667199,16.0376904 L9.32870861,0.288194301 L6.83657218,0.288194301 L7.05620195,1.46403697 C6.85774131,1.31051522 6.71352658,1.20188432 6.55581652,1.08829311 C6.32083912,0.922618589 6.05622494,0.75099169 5.75853397,0.596477878 C5.16103513,0.285218112 4.4349338,0.0426587089 3.56673465,0.0426587089 C0.408828921,0.0426587089 -0.299278647,2.53323287 0.220159005,5.3288664 C0.751504296,8.17087887 2.5008687,11.022812 5.68867583,11.022812 C7.58225496,11.022812 8.19933525,10.1493005 8.52957376,9.41914214 C8.57005973,9.51760439 8.61345645,9.73263405 8.66611468,10.0185962 L8.88574445,11.2393297 C9.04080837,12.1068888 9.19904765,12.9484063 9.19904765,12.9484063 C9.47742178,14.4476615 9.21545373,14.8258855 8.00563766,14.913435 C7.96594553,14.9166592 7.80558934,14.9303001 7.76272184,14.9327803 L7.87994592,15.464278 L12.2667199,16.0376904 Z" id="path42" fill="#FFFFFF" fill-rule="nonzero"></path>
                            </g>
                            <g id="g44" stroke-width="1" fill="none" fill-rule="evenodd" transform="translate(134.671819, 4.059199)">
                                <path d="M6.61535472,11.1607087 C10.1177881,11.1607087 11.4043423,8.88640431 10.7996989,5.65227893 C10.1177881,1.99107044 8.14508934,0.180555466 4.58682235,0.180555466 C0.699375301,0.180555466 -0.189199145,2.52504835 0.396392055,5.66839996 C1.0947089,9.41864611 3.10207213,11.1607087 6.61535472,11.1607087 M8.0733789,5.66839996 C8.46209714,7.75570051 8.71004063,10.3018302 6.47378612,10.3018302 C4.16661501,10.3018302 3.49370113,7.63392477 3.12482895,5.65227893 C2.77183363,3.76190289 2.44291819,1.03943401 4.72680325,1.03943401 C7.01068831,1.03943401 7.65317156,3.41815306 8.0733789,5.66839996 M8.0733789,5.66839996 C8.46209714,7.75570051 8.71004063,10.3018302 6.47378612,10.3018302 C4.16661501,10.3018302 3.49370113,7.63392477 3.12482895,5.65227893 C2.77183363,3.76190289 2.44291819,1.03943401 4.72680325,1.03943401 C7.01068831,1.03943401 7.65317156,3.41815306 8.0733789,5.66839996 M6.61535472,11.1607087 C10.1177881,11.1607087 11.4043423,8.88640431 10.7996989,5.65227893 C10.1177881,1.99107044 8.14508934,0.180555466 4.58682235,0.180555466 C0.699375301,0.180555466 -0.189199145,2.52504835 0.396392055,5.66839996 C1.0947089,9.41864611 3.10207213,11.1607087 6.61535472,11.1607087" id="path46" fill="#FFFFFF" fill-rule="nonzero"></path>
                            </g>
                            <g id="g48" stroke-width="1" fill="none" fill-rule="evenodd" transform="translate(33.117868, 4.372964)">
                                <path d="M4.49844121,8.68055124 L6.03346811,8.68055124 C8.07046814,8.68055124 9.72695296,9.29811045 10.1331357,11.4764328 C10.4993618,13.4427016 9.45281266,14.0991993 7.29964701,14.0991993 C5.87443499,14.0991993 5.49630131,14.0334752 5.29995758,12.9784162 L4.49844121,8.68055124 Z M12.8806249,11.5699347 C12.4831743,9.43451911 10.7293115,8.55431122 9.49012326,8.17236697 C11.0619315,7.8343215 12.8329943,6.96626637 12.3072059,4.15153563 C11.9301307,2.13020727 10.514974,1.11929508 8.95507337,0.614583028 C8.17710766,0.36408712 7.36024366,0.237103057 6.61773624,0.175595151 C5.87602267,0.112103119 5.20416725,0.112103119 4.71357254,0.112103119 L0.170411537,0.112103119 L2.42016137,12.1696368 C2.62788351,13.2871958 2.70912006,13.8122451 2.49504718,14.1088719 C2.28388506,14.4022746 1.68929698,14.5250424 0.624489485,14.6914609 L0.729805932,15.2497444 L7.85480758,15.2497444 C10.5858906,15.2497444 13.4551023,14.6478102 12.8806249,11.5699347 L12.8806249,11.5699347 Z M3.27539443,2.11979061 C3.11741976,1.27628905 3.98852967,1.26264818 5.34070817,1.26264818 C7.93657336,1.26264818 9.23926901,2.33953257 9.66000557,4.59424375 C10.0635422,6.75842918 8.49517391,7.52951014 6.40842642,7.52951014 L4.2838391,7.52951014 L3.27539443,2.11979061 Z" id="path50" fill="#FFFFFF" fill-rule="nonzero"></path>
                            </g>
                            <g id="g52" stroke-width="1" fill="none" fill-rule="evenodd" transform="translate(45.368156, 4.146625)">
                                <path d="M7.14458309,6.20039374 L7.38405893,7.30158367 C7.65370079,8.74503533 7.91328731,10.2145286 6.48807529,10.2145286 C5.04460489,10.2145286 4.66911736,9.09548159 4.47753669,8.1351646 C4.46801057,8.09275391 4.45425064,7.98610714 4.44631221,7.94444049 L1.48369176,7.93600796 C2.06795988,9.51537225 3.17219489,11.0731592 6.6058286,11.0731592 C10.0418438,11.0731592 10.2667659,9.39657271 9.85185086,7.17335953 L8.57641047,0.338541498 L6.08427404,0.338541498 L6.31316531,1.5605151 C6.1562491,1.41492985 6.05622494,1.3244041 5.9456162,1.22643788 C5.74689095,1.05927527 5.51059048,0.874999565 5.23459788,0.707340918 C4.67864347,0.370039498 3.95677596,0.0930059061 3.02586325,0.0930059061 C1.141281,0.0930059061 0.00740919728,1.3668148 0.260115747,2.72098079 C0.847030018,5.86582049 5.54578417,6.14979853 7.14458309,6.20039374 M3.05788156,3.08407585 C2.86762396,2.06646723 3.27830518,1.3983128 4.11051681,1.3983128 C5.45528611,1.3983128 6.49733679,2.55257809 6.77888628,4.06200195 L7.00936524,5.29761641 C5.97657606,5.26314222 3.42887066,5.0753943 3.05788156,3.08407585 M3.05788156,3.08407585 C2.86762396,2.06646723 3.27830518,1.3983128 4.11051681,1.3983128 C5.45528611,1.3983128 6.49733679,2.55257809 6.77888628,4.06200195 L7.00936524,5.29761641 C5.97657606,5.26314222 3.42887066,5.0753943 3.05788156,3.08407585 M7.14458309,6.20039374 L7.38405893,7.30158367 C7.65370079,8.74503533 7.91328731,10.2145286 6.48807529,10.2145286 C5.04460489,10.2145286 4.66911736,9.09548159 4.47753669,8.1351646 C4.46801057,8.09275391 4.45425064,7.98610714 4.44631221,7.94444049 L1.48369176,7.93600796 C2.06795988,9.51537225 3.17219489,11.0731592 6.6058286,11.0731592 C10.0418438,11.0731592 10.2667659,9.39657271 9.85185086,7.17335953 L8.57641047,0.338541498 L6.08427404,0.338541498 L6.31316531,1.5605151 C6.1562491,1.41492985 6.05622494,1.3244041 5.9456162,1.22643788 C5.74689095,1.05927527 5.51059048,0.874999565 5.23459788,0.707340918 C4.67864347,0.370039498 3.95677596,0.0930059061 3.02586325,0.0930059061 C1.141281,0.0930059061 0.00740919728,1.3668148 0.260115747,2.72098079 C0.847030018,5.86582049 5.54578417,6.14979853 7.14458309,6.20039374" id="path54" fill="#FFFFFF" fill-rule="nonzero"></path>
                            </g>
                            <g id="g56" stroke-width="1" fill="none" fill-rule="evenodd" transform="translate(55.680091, 4.377949)">
                                <path d="M8.20303985,5.95237799 C8.53724757,7.75545249 8.79842177,9.22271366 7.27794864,9.22271366 C5.74345096,9.22271366 4.00811112,7.17782381 3.71438937,5.59945158 L2.69139091,0.107142804 L0.198725256,0.107142804 L1.60409121,7.65029381 C1.88325918,9.13590815 1.59879893,9.51115598 0.270700315,9.57489603 C0.236035856,9.57539206 0.0894395958,9.59225713 0.0526582235,9.59324919 L0.159562356,10.1220188 L4.69452032,10.8529212 L4.18063957,8.09449002 C4.95040224,9.15624544 6.51665362,10.8420085 8.65817625,10.8420085 C10.8788185,10.8420085 11.3305149,9.36259455 11.0076856,7.63516485 L9.60496582,0.107142804 L7.11124171,0.107142804 L8.20303985,5.95237799 Z" id="path58" fill="#FFFFFF" fill-rule="nonzero"></path>
                            </g>
                            <g id="g60" stroke-width="1" fill="none" fill-rule="evenodd" transform="translate(67.296495, 4.123758)">
                                <path d="M6.8799689,7.93650399 C7.06466961,8.9665134 7.04482354,10.2373461 5.6563929,10.2373461 C4.08696614,10.2373461 3.4241076,8.63764451 3.02136481,6.48040352 C2.40693066,3.18204207 3.68819256,1.42113025 5.80484146,1.42113025 C6.50633367,1.42113025 7.44783095,1.54290598 8.0530036,1.70882851 C8.07443735,1.71478089 8.14826471,1.73809437 8.16811077,1.74454278 L7.97758856,0.650545311 C7.48487694,0.493303326 7.14008465,0.37227164 6.63625924,0.275793514 C6.12237848,0.176339198 5.47433833,0.116071371 4.48388743,0.116071371 C1.10370578,0.116071371 -0.475776311,2.36458216 0.157974671,5.75942174 C0.729541318,8.83506505 2.49584103,11.0962246 5.94111776,11.0962246 C8.52719223,11.0962246 10.0672468,9.90277285 9.83359248,8.13318048 C9.82909404,8.09225788 9.8134818,7.98263492 9.80633722,7.94171232 L6.8799689,7.93650399 Z" id="path62" fill="#FFFFFF" fill-rule="nonzero"></path>
                            </g>
                            <g id="g64" stroke-width="1" fill="none" fill-rule="evenodd" transform="translate(76.387977, 4.059199)">
                                <path d="M6.61535472,11.1607087 C10.1167297,11.1607087 11.4043423,8.88640431 10.801022,5.65227893 C10.1167297,1.99107044 8.14508934,0.180555466 4.58576389,0.180555466 C0.700169143,0.180555466 -0.188140688,2.52504835 0.39612744,5.66839996 C1.09682581,9.41864611 3.10498289,11.1607087 6.61535472,11.1607087 M8.07390812,5.66839996 C8.46236175,7.75570051 8.71056986,10.3018302 6.4732569,10.3018302 C4.16767347,10.3018302 3.49370113,7.63392477 3.12482895,5.65227893 C2.77183363,3.76190289 2.44344742,1.03943401 4.72733248,1.03943401 C7.01121754,1.03943401 7.65423002,3.41815306 8.07390812,5.66839996 M8.07390812,5.66839996 C8.46236175,7.75570051 8.71056986,10.3018302 6.4732569,10.3018302 C4.16767347,10.3018302 3.49370113,7.63392477 3.12482895,5.65227893 C2.77183363,3.76190289 2.44344742,1.03943401 4.72733248,1.03943401 C7.01121754,1.03943401 7.65423002,3.41815306 8.07390812,5.66839996 M6.61535472,11.1607087 C10.1167297,11.1607087 11.4043423,8.88640431 10.801022,5.65227893 C10.1167297,1.99107044 8.14508934,0.180555466 4.58576389,0.180555466 C0.700169143,0.180555466 -0.188140688,2.52504835 0.39612744,5.66839996 C1.09682581,9.41864611 3.10498289,11.1607087 6.61535472,11.1607087" id="path66" fill="#FFFFFF" fill-rule="nonzero"></path>
                            </g>
                            <g id="g68" stroke-width="1" fill="none" fill-rule="evenodd" transform="translate(148.244675, 11.465396)">
                                <path d="M0,1.984126 C0,3.00669493 0.88381139,3.83556357 1.97428646,3.83556357 C3.0642323,3.83556357 3.94751447,3.00669493 3.94751447,1.984126 C3.94751447,0.963045156 3.0642323,0.135416599 1.97428646,0.135416599 C0.88381139,0.135416599 0,0.963045156 0,1.984126 Z" id="path70" stroke="#FFFFFF" stroke-width="0.5"></path>
                            </g>
                            <g id="g72" stroke-width="1" fill="none" fill-rule="evenodd" transform="translate(149.448352, 12.153987)">
                                <path d="M0,0 L0.440847238,0 L0.440847238,1.15302522 L0.605172649,1.15302522 C1.03358302,1.15302522 1.11481958,0.913690022 1.17435777,0.691715926 L1.3296863,0 L1.77476736,0 L1.62737726,0.672370697 C1.55884219,0.975693959 1.50300859,1.23561446 1.08677047,1.30009856 L1.08677047,1.30729102 C1.32201249,1.34821361 1.67924164,1.49404688 1.67924164,1.91145738 C1.67924164,2.53298485 1.06983516,2.5920126 0.605172649,2.5920126 L0,2.5920126 L0,0 Z M0.440847238,2.34439367 L0.605172649,2.34439367 C1.02220461,2.34439367 1.23680672,2.24196317 1.23680672,1.89325303 C1.23680672,1.48402704 0.885928304,1.40094176 0.605172649,1.40094176 L0.440847238,1.40094176 L0.440847238,2.34439367 Z" id="Combined-Shape" fill="#FFFFFF" fill-rule="nonzero"></path>
                            </g>
                            <g id="g76" stroke-width="1" fill="none" fill-rule="evenodd" transform="translate(149.889199, 13.506318)"></g>
                            <polygon id="path84" fill="#C1133C" fill-rule="nonzero" points="0.225715903 24.0823293 25.8485724 24.0823293 25.8485724 0.0612598902 0.225715903 0.0612598902"></polygon>
                            <g id="g86" stroke-width="1" fill="none" fill-rule="evenodd" transform="translate(14.734671, 3.982414)">
                                <path d="M11.1137959,7.44047249 L0.250325022,16.0104087 C0.24953118,16.0104087 0.248208109,16.0091686 0.247678881,16.0081766 L0.247678881,0.0806051186 L11.1137959,0.0783729769 L11.1137959,7.44047249 Z" id="path88" fill="#F39900" fill-rule="nonzero"></path>
                            </g>
                            <g id="g90" stroke-width="1" fill="none" fill-rule="evenodd" transform="translate(0.166680, 3.814209)">
                                <path d="M14.8183946,13.888882 L14.8176007,16.1800515 C14.0610688,15.3861531 12.1579635,14.0300029 9.81639256,13.7135348 L9.81639256,11.9409663 L7.98367469,11.1924547 L7.98367469,9.66616582 L0.0590089641,6.79711963 L0.0590089641,0.246775671 L16.6966261,0.246775671 L16.6966261,14.6244967 L14.8183946,13.888882 Z" id="path92" fill="#FFFFFF" fill-rule="nonzero"></path>
                            </g>
                            <g id="g94" stroke-width="1" fill="none" fill-rule="evenodd" transform="translate(0.196132, 7.187968)">
                                <path d="M9.79072498,6.94444099 L8.28374717,6.40996705 C8.11174795,6.3477151 7.97229627,6.16715963 7.97229627,6.00694146 L7.97361935,4.91269597 C7.96065325,4.73933296 7.84078302,4.58829137 7.65423002,4.53670409 L0.0293721749,1.78298522 L0.0293721749,0.10912693 L7.67857453,2.89955213 C7.84977991,2.96180408 7.98870235,3.14285558 7.98870235,3.30356978 L7.98870235,4.3888867 C8.00008076,4.5605136 8.11889254,4.70585083 8.28374717,4.76289446 L9.79072498,5.29960054 L9.79072498,6.94444099 Z" id="path96" fill="#C1133C" fill-rule="nonzero"></path>
                            </g>
                            <g id="g98" stroke-width="1" fill="none" fill-rule="evenodd" transform="translate(0.196132, 3.973088)">
                                <path d="M9.79072498,6.94444099 L8.28374717,6.41046308 C8.11174795,6.34821113 7.97229627,6.16715963 7.97229627,6.00594939 L7.97361935,4.91170391 C7.96065325,4.74007701 7.84078302,4.58804335 7.65423002,4.53571203 L0.0293721749,1.73561422 L0.0293721749,0.0912697959 L7.67857453,2.89955213 C7.84977991,2.96155607 7.98870235,3.14285558 7.98870235,3.30406582 L7.98870235,4.38814266 C8.00008076,4.55952154 8.11889254,4.70560282 8.28374717,4.76289446 L9.79072498,5.29960054 L9.79072498,6.94444099 Z" id="path100" fill="#C1133C" fill-rule="nonzero"></path>
                            </g>
                            <polygon id="path102" fill="#074990" fill-rule="nonzero" points="0.225715903 4.0644821 25.8485724 4.0644821 25.8485724 0.0612598902 0.225715903 0.0612598902"></polygon>
                            <g id="g104" stroke-width="1" fill="none" fill-rule="evenodd" transform="translate(5.939874, 0.826885)">
                                <path d="M1.85229932,2.4801575 L1.45140882,2.43898688 L1.28628957,1.62177499 C1.15239479,1.67509837 1.089152,1.6897313 0.993361664,1.6897313 C0.530551448,1.6897313 0.131513252,1.18229108 0.117753314,0.581844949 C0.111667188,0.312251829 0.222011304,0.148065403 0.42073656,0.148065403 C0.536108346,0.148065403 0.706784498,0.216021718 0.844383876,0.318204207 C0.921915833,0.376735924 0.986481695,0.438987877 1.03702301,0.506448161 C1.05792753,0.531497751 1.0854474,0.571676303 1.11984725,0.627975878 L1.04019838,0.200644741 L1.413569,0.200644741 L1.85229932,2.4801575 Z M1.2328375,1.33978108 L1.19817305,1.16046569 C1.1730347,1.00843204 1.0388753,0.804563092 0.876666807,0.658481815 C0.775054958,0.568700114 0.66709237,0.506448161 0.611788004,0.506448161 C0.554895954,0.506448161 0.523406865,0.562747736 0.526053007,0.655505626 C0.529228377,0.807539281 0.608612634,1.04290623 0.693289174,1.17906687 C0.786168754,1.32167593 0.924032747,1.41741001 1.03305379,1.41741001 C1.10661654,1.41741001 1.17091778,1.39335248 1.2328375,1.33978108 L1.2328375,1.33978108 Z" id="path106" fill="#FFFFFF" fill-rule="nonzero"></path>
                            </g>
                            <g id="g108" stroke-width="1" fill="none" fill-rule="evenodd" transform="translate(7.901221, 0.969791)">
                                <path d="M1.32307094,1.24007875 C1.327834,1.43873936 1.18229619,1.54116987 0.893602115,1.54116987 C0.38157366,1.54116987 0.0179937648,1.12623952 0.00317537026,0.528769578 C-0.00502766958,0.187747922 0.136276307,0.0176091182 0.429998057,0.0176091182 C0.562834379,0.0176091182 0.718427522,0.0540674334 0.849411545,0.119791607 C0.896248257,0.140872946 0.952875693,0.175347135 1.0237923,0.222222112 C1.11137959,0.280505813 1.15080711,0.305307388 1.24606821,0.376735924 L1.0984135,0.596725894 C0.883546776,0.447668428 0.829565481,0.414186302 0.7403905,0.379712113 C0.673178496,0.354910538 0.593529625,0.339781577 0.550662127,0.339781577 C0.498003903,0.339781577 0.432644198,0.370287514 0.403536638,0.414186302 C0.38474903,0.441964066 0.375487534,0.472470003 0.363844509,0.543898539 L1.04046299,0.875495596 C1.23310212,0.971477691 1.31883712,1.07936454 1.32307094,1.24007875 M0.941497283,1.15699347 C0.940438826,1.12896769 0.935411157,1.11036651 0.918475849,1.07068399 L0.393481298,0.797618651 C0.464397901,1.00223164 0.506736171,1.08531692 0.587708113,1.17212243 C0.658624715,1.25049541 0.73536283,1.29067396 0.811571717,1.29067396 C0.897835942,1.29067396 0.94255574,1.24379898 0.941497283,1.15699347" id="path110" fill="#FFFFFF" fill-rule="nonzero"></path>
                            </g>
                            <g id="g112" stroke-width="1" fill="none" fill-rule="evenodd" transform="translate(9.244694, 0.938789)">
                                <path d="M1.32307094,1.4880945 C1.17647468,1.54439407 1.03861069,1.57217184 0.876402193,1.57217184 C0.509646927,1.57217184 0.294515592,1.41716199 0.287635623,1.15153713 C0.284989481,1.06473161 0.313832428,0.990078872 0.368342951,0.92137851 C0.403536638,0.88169599 0.445610294,0.838045218 0.493770076,0.79414643 C0.510705384,0.78248969 0.571831262,0.732638524 0.675560024,0.642856823 C0.755473509,0.578124712 0.784316455,0.531993783 0.783257998,0.475694208 C0.781141085,0.401289483 0.70757834,0.351438317 0.585326585,0.351438317 C0.489536249,0.351438317 0.390570542,0.373511719 0.227303588,0.429067247 L0.110873345,0.12896819 C0.239211227,0.0952380478 0.288429466,0.0850694021 0.413591977,0.0669642524 C0.499326974,0.0543154492 0.59829268,0.0486110869 0.661535472,0.0486110869 C0.981189411,0.0486110869 1.19684998,0.218749891 1.20399456,0.481646586 C1.20690531,0.63368024 1.14022254,0.730158367 0.916094321,0.909473754 C0.741184342,1.04538638 0.721602892,1.06473161 0.693289174,1.11036651 C0.680323079,1.12946372 0.674501567,1.15153713 0.674501567,1.17286648 C0.676353866,1.24057478 0.750445839,1.28149738 0.87878372,1.28149738 C0.985158624,1.28149738 1.05316447,1.26240017 1.20399456,1.18799544 L1.32307094,1.4880945 Z" id="path114" fill="#FFFFFF" fill-rule="nonzero"></path>
                            </g>
                            <g id="g116" stroke-width="1" fill="none" fill-rule="evenodd" transform="translate(10.648922, 0.826885)">
                                <path d="M1.85229932,2.4801575 L1.45061498,2.43898688 L1.28549573,1.62177499 C1.15186556,1.67509837 1.08835816,1.6897313 0.993361664,1.6897313 C0.530551448,1.6897313 0.130454795,1.18229108 0.1156364,0.581844949 C0.109550274,0.312251829 0.22174669,0.148065403 0.419148875,0.148065403 C0.535314504,0.148065403 0.705196813,0.216021718 0.843590033,0.318204207 C0.921651219,0.376735924 0.985687853,0.438987877 1.03702301,0.506448161 C1.05713368,0.531497751 1.08465356,0.571676303 1.11958263,0.627975878 L1.03861069,0.200644741 L1.4117167,0.200644741 L1.85229932,2.4801575 Z M1.23204366,1.33978108 L1.19817305,1.16046569 C1.1711824,1.00843204 1.03702301,0.804563092 0.875343736,0.658481815 C0.773467273,0.568700114 0.666298527,0.506448161 0.610200319,0.506448161 C0.554631339,0.506448161 0.522613023,0.562747736 0.525259164,0.655505626 C0.528963763,0.807539281 0.607024949,1.04290623 0.692495332,1.17906687 C0.786433369,1.32167593 0.923238904,1.41741001 1.03225995,1.41741001 C1.10502885,1.41741001 1.1711824,1.39335248 1.23204366,1.33978108 L1.23204366,1.33978108 Z" id="path118" fill="#FFFFFF" fill-rule="nonzero"></path>
                            </g>
                            <g id="g120" stroke-width="1" fill="none" fill-rule="evenodd" transform="translate(12.609475, 0.969791)">
                                <path d="M1.32307094,1.24007875 C1.327834,1.43873936 1.18123774,1.54116987 0.893602115,1.54116987 C0.380515203,1.54116987 0.0169353081,1.12623952 0.00317537026,0.528769578 C-0.00502766958,0.187747922 0.136011693,0.0176091182 0.429733442,0.0176091182 C0.562834379,0.0176091182 0.718427522,0.0540674334 0.848617703,0.119791607 C0.895983643,0.140872946 0.953669536,0.175347135 1.0237923,0.222222112 C1.11005652,0.280505813 1.15160095,0.305307388 1.24527437,0.376735924 L1.0984135,0.596725894 C0.883546776,0.447668428 0.829565481,0.414186302 0.739596657,0.379712113 C0.673178496,0.354910538 0.593529625,0.339781577 0.549868284,0.339781577 C0.498003903,0.339781577 0.432379584,0.370287514 0.403536638,0.414186302 C0.383690574,0.441964066 0.374429077,0.472470003 0.363844509,0.543898539 L1.03940453,0.875495596 C1.23310212,0.971477691 1.31883712,1.07936454 1.32307094,1.24007875 M0.940438826,1.15699347 C0.93938037,1.12896769 0.935411157,1.11036651 0.919269691,1.07068399 L0.393481298,0.797618651 C0.464397901,1.00223164 0.505677714,1.08531692 0.587708113,1.17212243 C0.65888933,1.25049541 0.73536283,1.29067396 0.811042488,1.29067396 C0.897835942,1.29067396 0.94255574,1.24379898 0.940438826,1.15699347" id="path122" fill="#FFFFFF" fill-rule="nonzero"></path>
                            </g>
                            <g id="g124" stroke-width="1" fill="none" fill-rule="evenodd" transform="translate(15.080945, 0.790674)">
                                <polygon id="path126" fill="#FFFFFF" fill-rule="nonzero" points="1.05845675 1.73611025 0.869786838 1.73611025 0.0695935316 1.46329292 0.159033127 1.17187442 0.582415829 1.32638823 0.37337062 0.236855041 0.766851919 0.236855041"></polygon>
                            </g>
                            <g id="g128" stroke-width="1" fill="none" fill-rule="evenodd" transform="translate(16.209418, 0.985168)">
                                <path d="M1.85229932,1.73611025 C1.85865006,1.97494941 1.65039869,2.12003863 1.30004951,2.12003863 C0.860260727,2.12003863 0.548545213,1.92807444 0.541665244,1.65277696 C0.538489874,1.52852106 0.601468051,1.38988026 0.70440297,1.28695372 L0.843325419,1.15104109 L0.561775922,0.977182053 C0.381044432,0.866070998 0.23630047,0.643352854 0.231537415,0.463789452 C0.224657446,0.165674521 0.441641081,0.00793650399 0.854703829,0.00793650399 C1.38366759,0.00793650399 1.75333361,0.230902663 1.76100743,0.559523531 C1.7641828,0.701884571 1.67950626,0.863094809 1.53687921,0.977182053 L1.3222771,1.15104109 L1.53449768,1.28695372 C1.69273696,1.38988026 1.75650898,1.45486039 1.80943182,1.56299525 C1.83562863,1.61855078 1.85177009,1.68055472 1.85229932,1.73611025 M1.43711966,1.66170552 C1.43526736,1.58209247 1.39107679,1.50669568 1.32095403,1.46354094 L1.12910874,1.34598147 L1.01056159,1.48263815 C0.975632513,1.52579289 0.953404922,1.58482064 0.954463378,1.64037617 C0.957638749,1.76091182 1.07909666,1.85069352 1.23363135,1.85069352 C1.35667695,1.85069352 1.44003041,1.77331261 1.43711966,1.66170552 M1.34212316,0.593005657 C1.33815395,0.4236109 1.15239479,0.274553435 0.947318795,0.274553435 C0.762882706,0.274553435 0.639043266,0.373015687 0.643541707,0.51934498 C0.645923234,0.637648492 0.741978185,0.779017469 0.869522224,0.86011862 L1.0573983,0.977182053 L1.25453587,0.801338887 C1.31328022,0.747767485 1.34397546,0.677082996 1.34212316,0.593005657" id="path130" fill="#FFFFFF" fill-rule="nonzero"></path>
                            </g>
                            <g id="g132" stroke-width="1" fill="none" fill-rule="evenodd" transform="translate(17.921155, 0.410788)">
                                <path d="M1.58768513,2.23214175 L0.589560412,2.23214175 L0.388453629,1.17906687 L0.597234224,1.17906687 C0.69302456,1.17906687 0.826919339,1.14558475 0.896512871,1.1054062 C0.961872576,1.06497963 0.999183176,0.981150305 0.997066263,0.875991628 C0.989127837,0.612350886 0.78272877,0.396329168 0.538754488,0.396329168 C0.442170309,0.396329168 0.350084572,0.418154554 0.189728373,0.480158491 L0.0703873742,0.188739985 C0.250325022,0.123511843 0.362786053,0.101686457 0.505148486,0.101686457 C0.986746309,0.101686457 1.39980906,0.476190239 1.41065824,0.922122557 C1.41568591,1.13888832 1.32360017,1.30977117 1.156364,1.38343185 C1.06639518,1.42385842 1.003417,1.43700325 0.835651608,1.45138817 L0.925355818,1.9196419 L1.5273531,1.9196419 L1.58768513,2.23214175 Z" id="path134" fill="#FFFFFF" fill-rule="nonzero"></path>
                            </g>
                            <g id="g136" stroke-width="1" fill="none" fill-rule="evenodd" transform="translate(19.349383, 0.410788)">
                                <path d="M1.58768513,2.23214175 L0.589825026,2.23214175 L0.388718243,1.17906687 L0.597498838,1.17906687 C0.692495332,1.17906687 0.827977796,1.14558475 0.896777485,1.1054062 C0.96213719,1.06497963 0.99812472,0.981150305 0.996801649,0.875991628 C0.98992168,0.612350886 0.78272877,0.396329168 0.538754488,0.396329168 C0.442170309,0.396329168 0.350349186,0.418154554 0.189992987,0.480158491 L0.0706519884,0.188739985 C0.250589637,0.123511843 0.361727596,0.101686457 0.504883872,0.101686457 C0.986746309,0.101686457 1.40007367,0.476190239 1.41092285,0.922122557 C1.41542129,1.13888832 1.32333556,1.30977117 1.15689323,1.38343185 C1.06639518,1.42385842 1.00368162,1.43700325 0.834857765,1.45138817 L0.925355818,1.9196419 L1.52788233,1.9196419 L1.58768513,2.23214175 Z" id="path138" fill="#FFFFFF" fill-rule="nonzero"></path>
                            </g>
                        </g>
                    </g>
                </g>
                <text id="EMPRESAS" font-family="OpenSans-BoldItalic, Open Sans" font-size="12" font-style="italic" font-weight="bold" fill="#FFFFFF">
                    <tspan x="87.4580078" y="37">EMPRESAS</tspan>
                </text>
            </g>
        </g>
    </g>
</svg>