<?xml version="1.0" encoding="utf-8"?>
<!-- Generator: Adobe Illustrator 21.1.0, SVG Export Plug-In . SVG Version: 6.00 Build 0)  -->
<svg version="1.1" id="Capa_1" xmlns="http://www.w3.org/2000/svg" xmlns:xlink="http://www.w3.org/1999/xlink" x="0px" y="0px"
	 viewBox="0 0 221.1 45.6" style="enable-background:new 0 0 221.1 45.6;" xml:space="preserve">
<style type="text/css">
	.st0{fill:#FFFFFF;}
	.st1{fill:#C0233D;}
	.st2{fill:#DB8916;}
	.st3{fill:#0E498E;}
</style>
<g>
	<g>
		<path class="st0" d="M141.4,16.6c0.4-2.7-0.8-3.4-2.9-3.4h-2.6c-1.6,0-2,0.1-2.3,1.7l-1.1,6.5h3.9c1.1,0,1.8-0.4,2.2-0.8
			c0.2-0.2,0.4-0.5,0.5-0.8c0.1-0.2,0.2-0.5,0.3-0.7c0,0,0.1-0.1,0.1-0.2h1.1l-1.2,7.1h-1.1c0.3-1.9-0.2-2.9-2.1-2.9h-4l-1.3,7.3
			c-0.3,1.8,0,1.8,1.7,1.8h3.7c1.8,0,2.9-0.7,3.5-3.2h1.1l-1,4.9h-13.4l3.1-17.9c0.3-1.7,0.4-2.4,0.1-2.9c-0.3-0.4-0.9-0.5-2.3-0.8
			c-0.1,0-0.3-0.1-0.4-0.1l0.2-0.9h16.1l-0.8,5.1h-1.1V16.6z"/>
		<path class="st0" d="M148,24.1c0.4,0.2,0.8,0.5,1.2,0.8c1.6,1,3.3,2.4,2.8,4.9c-0.6,3.3-3.5,4.6-6.8,4.6c-1,0-1.9-0.1-2.6-0.2
			c-0.7-0.1-1.3-0.3-1.7-0.4l0.5-2.8c1,0.8,2.3,1.8,4.1,1.8c2.1,0,3-1,3.2-2.2c0.1-0.8-0.2-1.4-0.8-1.9c-0.3-0.3-0.6-0.5-1-0.8
			c-0.4-0.2-0.8-0.5-1.2-0.8c-1.6-1-3.3-2.2-2.9-4.6c0.4-2.4,2.4-4.5,6.4-4.5c0.9,0,1.6,0.1,2.3,0.2c0.5,0.1,0.9,0.2,1.2,0.3
			l0.2,0.1l-0.5,2.7c-0.2-0.2-0.4-0.3-0.6-0.5c-0.2-0.2-0.5-0.4-0.8-0.5c-0.6-0.4-1.4-0.7-2.3-0.7c-1.1,0-2.3,0.4-2.6,1.8
			c-0.1,0.8,0.2,1.3,0.8,1.8C147.3,23.6,147.7,23.8,148,24.1"/>
		<path class="st0" d="M157,18.5l0.4-2.6l4-3.1l-1,5.7h4.3l-0.3,1.5h-4.3l-1.7,9.6c-0.4,2.3-0.4,3.3,2.1,3.3c0.4,0,0.9,0,1.3-0.1
			l-0.2,1.5c-0.8,0.1-1.6,0.3-2.3,0.3c-3.2,0-5-0.5-4.4-4.4l1.8-10.1h-2.6l0.3-1.5h2.6V18.5z"/>
		<path class="st0" d="M172.2,25.3l0.3-1.6c0.4-2.1,0.7-4.3-1.2-4.3c-2,0-2.5,1.7-2.8,3.1v0.2h-4.1c0.8-2.3,2.4-4.7,7.1-4.7
			c4.8,0,5.1,2.5,4.5,5.8L174.2,34h-3.5l0.3-1.8c-0.2,0.2-0.4,0.4-0.5,0.5c-0.3,0.3-0.6,0.5-1,0.8c-0.8,0.5-1.8,0.9-3.1,0.9
			c-2.6,0-4.2-1.9-3.9-3.9C163.4,25.8,169.9,25.4,172.2,25.3 M166.5,30c-0.3,1.5,0.3,2.5,1.5,2.5c1.9,0,3.3-1.7,3.7-4l0.3-1.8
			C170.5,26.7,167,27,166.5,30 M166.5,30c-0.3,1.5,0.3,2.5,1.5,2.5c1.9,0,3.3-1.7,3.7-4l0.3-1.8C170.5,26.7,167,27,166.5,30
			 M172.2,25.3l0.3-1.6c0.4-2.1,0.7-4.3-1.2-4.3c-2,0-2.5,1.7-2.8,3.1v0.2h-4.1c0.8-2.3,2.4-4.7,7.1-4.7c4.8,0,5.1,2.5,4.5,5.8
			L174.2,34h-3.5l0.3-1.8c-0.2,0.2-0.4,0.4-0.5,0.5c-0.3,0.3-0.6,0.5-1,0.8c-0.8,0.5-1.8,0.9-3.1,0.9c-2.6,0-4.2-1.9-3.9-3.9
			C163.4,25.8,169.9,25.4,172.2,25.3"/>
		<path class="st0" d="M193.8,10.7l-4.1,23.4h-3.5l0.3-1.7c-0.3,0.2-0.5,0.4-0.7,0.6c-0.3,0.2-0.7,0.5-1.1,0.7
			c-0.8,0.5-1.8,0.8-3.1,0.8c-4.4,0-5.4-3.7-4.7-7.9s3.2-8.5,7.6-8.5c2.6,0,3.5,1.3,4,2.4c0.1-0.1,0.1-0.5,0.2-0.9l0.3-1.8
			c0.2-1.3,0.4-2.5,0.4-2.5c0.4-2.2,0-2.8-1.7-2.9c-0.1,0-0.3,0-0.3,0l0.2-0.8L193.8,10.7z M187.8,25.3c0.3-1.9,0.5-5.2-2.5-5.2
			s-3.9,3.7-4.4,6.1c-0.5,2.6-0.8,6.4,2.2,6.4c3.1,0,4.1-4.1,4.4-5.9L187.8,25.3z"/>
		<path class="st0" d="M201.2,18.1c4.9,0,6.7,3.4,5.8,8.2c-1,5.4-3.7,8.1-8.7,8.1c-5.4,0-6.7-3.5-5.8-8.2
			C193.5,20.7,196.3,18.1,201.2,18.1 M203.2,26.3c0.5-3.1,0.9-6.9-2.2-6.9c-3.2,0-4.1,4-4.7,6.9c-0.5,2.8-0.9,6.9,2.2,6.9
			C201.7,33.1,202.6,29.6,203.2,26.3 M203.2,26.3c0.5-3.1,0.9-6.9-2.2-6.9c-3.2,0-4.1,4-4.7,6.9c-0.5,2.8-0.9,6.9,2.2,6.9
			C201.7,33.1,202.6,29.6,203.2,26.3 M201.2,18.1c4.9,0,6.7,3.4,5.8,8.2c-1,5.4-3.7,8.1-8.7,8.1c-5.4,0-6.7-3.5-5.8-8.2
			C193.5,20.7,196.3,18.1,201.2,18.1"/>
		<path class="st0" d="M55.1,31.1c-0.2,1.3,1,1.3,2.9,1.3c3.6,0,5.4-1.6,6-5c0.6-3.2-1.6-4.4-4.5-4.4h-3L55.1,31.1z M68.5,17
			c-0.6,3.2-3,4.5-4.7,5c2.2,0.5,4.7,1.8,3.9,6c-0.5,3-2.5,4.5-4.7,5.3c-1.1,0.4-2.2,0.6-3.3,0.7c-1,0.1-2,0.1-2.7,0.1h-6.3
			l3.1-17.9c0.3-1.7,0.4-2.4,0.1-2.9c-0.3-0.4-1.1-0.6-2.6-0.9l0.1-0.8h9.9C65.3,11.6,69.3,12.5,68.5,17 M56.8,21.3h2.1
			c2.8,0,5.1-0.9,5.7-4.2c0.5-2.9-0.9-3.9-3.9-3.9c-2,0-2.5,0.1-2.8,1.7L56.8,21.3z"/>
		<path class="st0" d="M77.5,25.3l0.3-1.6c0.4-2.1,0.7-4.3-1.2-4.3c-2,0-2.5,1.7-2.8,3.1c0,0.1,0,0.2,0,0.3h-4.1
			c0.8-2.3,2.4-4.7,7.1-4.7c4.8,0,5.1,2.5,4.5,5.8l-1.8,10.2H76l0.3-1.8c-0.2,0.2-0.4,0.4-0.5,0.5c-0.3,0.2-0.6,0.5-1,0.8
			c-0.8,0.5-1.8,0.9-3.1,0.9c-2.6,0-4.2-1.9-3.9-3.9C68.8,25.8,75.3,25.4,77.5,25.3 M71.8,30c-0.3,1.5,0.3,2.5,1.5,2.5
			c1.9,0,3.3-1.7,3.7-4l0.3-1.8C75.9,26.7,72.4,27,71.8,30 M71.8,30c-0.3,1.5,0.3,2.5,1.5,2.5c1.9,0,3.3-1.7,3.7-4l0.3-1.8
			C75.9,26.7,72.4,27,71.8,30 M77.5,25.3l0.3-1.6c0.4-2.1,0.7-4.3-1.2-4.3c-2,0-2.5,1.7-2.8,3.1c0,0.1,0,0.2,0,0.3h-4.1
			c0.8-2.3,2.4-4.7,7.1-4.7c4.8,0,5.1,2.5,4.5,5.8l-1.8,10.2H76l0.3-1.8c-0.2,0.2-0.4,0.4-0.5,0.5c-0.3,0.2-0.6,0.5-1,0.8
			c-0.8,0.5-1.8,0.9-3.1,0.9c-2.6,0-4.2-1.9-3.9-3.9C68.8,25.8,75.3,25.4,77.5,25.3"/>
		<path class="st0" d="M93.4,25.4c0.5-2.7,0.8-4.9-1.3-4.9c-2.1,0-4.6,3-5,5.4l-1.4,8.2h-3.5l2-11.2c0.4-2.2,0-2.8-1.9-2.9H82
			l0.1-0.8l6.3-1.1l-0.7,4.1c1.1-1.6,3.3-4.1,6.2-4.1c3.1,0,3.7,2.2,3.3,4.8l-2,11.2h-3.5L93.4,25.4z"/>
		<path class="st0" d="M107.7,22.8c0.3-1.5,0.2-3.4-1.7-3.4c-2.2,0-3.1,2.4-3.7,5.6c-0.9,4.9,0.9,7.5,3.9,7.5c1,0,2.3-0.2,3.1-0.4
			c0,0,0.1,0,0.2-0.1l-0.3,1.6c-0.7,0.2-1.2,0.4-1.9,0.6c-0.7,0.1-1.6,0.2-3,0.2c-4.7,0-6.9-3.3-6-8.4c0.8-4.6,3.3-7.9,8.1-7.9
			c3.6,0,5.7,1.8,5.4,4.4c0,0.1,0,0.2,0,0.3L107.7,22.8z"/>
		<path class="st0" d="M120,18.1c4.9,0,6.7,3.4,5.8,8.2c-1,5.4-3.7,8.1-8.7,8.1c-5.4,0-6.6-3.5-5.8-8.2
			C112.3,20.7,115.1,18.1,120,18.1 M122,26.3c0.5-3.1,0.9-6.9-2.2-6.9c-3.2,0-4.2,4-4.7,6.9c-0.5,2.8-0.9,6.9,2.2,6.9
			C120.5,33.1,121.4,29.6,122,26.3 M122,26.3c0.5-3.1,0.9-6.9-2.2-6.9c-3.2,0-4.2,4-4.7,6.9c-0.5,2.8-0.9,6.9,2.2,6.9
			C120.5,33.1,121.4,29.6,122,26.3 M120,18.1c4.9,0,6.7,3.4,5.8,8.2c-1,5.4-3.7,8.1-8.7,8.1c-5.4,0-6.6-3.5-5.8-8.2
			C112.3,20.7,115.1,18.1,120,18.1"/>
	</g>
	<rect x="4.7" y="4.9" class="st1" width="35.7" height="35.7"/>
	<polygon class="st2" points="40.4,23.7 25.3,11 25.3,11 25.3,34.7 40.4,34.7 	"/>
	<path class="st0" d="M25.3,14.4V11c-1.1,1.2-3.7,3.2-7,3.7v2.6l-2.6,1.1v2.3L4.7,25v9.7h23.2V13.3L25.3,14.4z"/>
	<path class="st1" d="M18.3,19.7l-2.1,0.8c-0.2,0.1-0.4,0.4-0.4,0.6v1.6c0,0.3-0.2,0.5-0.4,0.6L4.7,27.4v2.5l10.7-4.1
		c0.2-0.1,0.4-0.4,0.4-0.6v-1.6c0-0.3,0.2-0.5,0.4-0.6l2.1-0.8V19.7z"/>
	<path class="st1" d="M18.3,24.5l-2.1,0.8c-0.2,0.1-0.4,0.4-0.4,0.6v1.6c0,0.3-0.2,0.5-0.4,0.6L4.7,32.2v2.4l10.7-4.2
		c0.2-0.1,0.4-0.4,0.4-0.6v-1.6c0-0.3,0.2-0.5,0.4-0.6l2.1-0.8V24.5z"/>
	<rect x="4.7" y="34.7" class="st3" width="35.7" height="5.9"/>
	<path class="st0" d="M14.4,37.5v0.3c0,0.2-0.2,0.5-0.4,0.7c-0.1,0.1-0.3,0.2-0.4,0.2c-0.1,0-0.1-0.1-0.1-0.2c0-0.2,0.1-0.6,0.2-0.8
		c0.1-0.2,0.3-0.4,0.5-0.4C14.2,37.4,14.3,37.4,14.4,37.5 M15.2,35.8l-0.6,0.1l-0.2,1.2C14.3,37,14.2,37,14,37
		c-0.6,0-1.2,0.8-1.2,1.6c0,0.4,0.1,0.6,0.4,0.6c0.2,0,0.4-0.1,0.6-0.3c0.1-0.1,0.2-0.2,0.3-0.3c0,0,0.1-0.1,0.1-0.2L14.1,39h0.5
		L15.2,35.8z"/>
	<path class="st0" d="M16.7,37.6L16.7,37.6L16,38.1c0.1-0.3,0.2-0.4,0.3-0.6c0.1-0.1,0.2-0.2,0.3-0.2C16.6,37.4,16.7,37.4,16.7,37.6
		 M17.2,37.4c0-0.3-0.2-0.4-0.6-0.4c-0.7,0-1.2,0.6-1.2,1.5c0,0.5,0.2,0.8,0.6,0.8c0.2,0,0.4-0.1,0.6-0.2c0.1,0,0.1-0.1,0.2-0.2
		c0.1-0.1,0.2-0.1,0.3-0.2l-0.2-0.3c-0.3,0.2-0.4,0.3-0.5,0.3s-0.2,0.1-0.3,0.1c-0.1,0-0.2,0-0.2-0.1c0,0,0-0.1-0.1-0.2l0.9-0.5
		C17.1,37.8,17.2,37.7,17.2,37.4"/>
	<path class="st0" d="M19.1,37.1C18.9,37,18.7,37,18.5,37c-0.5,0-0.8,0.2-0.8,0.6c0,0.1,0,0.2,0.1,0.3c0,0.1,0.1,0.1,0.2,0.2
		c0,0,0.1,0.1,0.3,0.2c0.1,0.1,0.2,0.2,0.1,0.2c0,0.1-0.1,0.2-0.3,0.2c-0.1,0-0.3,0-0.5-0.1L17.4,39c0.2,0,0.2,0.1,0.4,0.1
		c0.1,0,0.3,0,0.3,0c0.4,0,0.7-0.3,0.8-0.6c0-0.2-0.1-0.4-0.4-0.6c-0.2-0.2-0.3-0.2-0.3-0.3v-0.1c0-0.1,0.1-0.2,0.3-0.2
		c0.1,0,0.2,0,0.5,0.1L19.1,37.1z"/>
	<path class="st0" d="M20.9,37.5v0.3c0,0.2-0.2,0.5-0.5,0.7c-0.1,0.1-0.3,0.2-0.4,0.2s-0.1-0.1-0.1-0.2c0-0.2,0.1-0.6,0.2-0.8
		s0.3-0.4,0.5-0.4C20.8,37.4,20.9,37.4,20.9,37.5 M21.8,35.8l-0.6,0.1L21,37.1C20.8,37,20.7,37,20.6,37c-0.6,0-1.2,0.8-1.2,1.6
		c0,0.4,0.1,0.6,0.4,0.6c0.2,0,0.4-0.1,0.6-0.3c0.1-0.1,0.2-0.2,0.3-0.3c0,0,0.1-0.1,0.1-0.2L20.7,39h0.5L21.8,35.8z"/>
	<path class="st0" d="M23.3,37.6L23.3,37.6l-0.7,0.5c0.1-0.3,0.2-0.4,0.3-0.6c0.1-0.1,0.2-0.2,0.3-0.2
		C23.2,37.4,23.3,37.4,23.3,37.6 M23.8,37.4c0-0.3-0.2-0.4-0.6-0.4c-0.7,0-1.2,0.6-1.2,1.5c0,0.5,0.2,0.8,0.6,0.8
		c0.2,0,0.4-0.1,0.6-0.2c0.1,0,0.1-0.1,0.2-0.2c0.1-0.1,0.2-0.1,0.3-0.2l-0.2-0.3c-0.3,0.2-0.4,0.3-0.5,0.3s-0.2,0.1-0.3,0.1
		c-0.1,0-0.2,0-0.2-0.1c0,0,0-0.1-0.1-0.2l0.9-0.5C23.7,37.8,23.8,37.7,23.8,37.4"/>
	<polygon class="st0" points="26.9,37 26.6,37 25.5,37.4 25.6,37.8 26.2,37.6 25.9,39.2 26.5,39.2 	"/>
	<path class="st0" d="M28.8,38.4c0,0.3-0.3,0.5-0.5,0.5c-0.3,0-0.4-0.1-0.4-0.4c0-0.2,0.1-0.4,0.3-0.5l0.3-0.2l0.3,0.3
		C28.8,38.1,28.8,38.2,28.8,38.4 M29,36.8c0,0.1-0.1,0.2-0.2,0.3l-0.3,0.2l-0.2-0.2c0-0.1-0.1-0.2-0.1-0.2c0-0.2,0.2-0.3,0.4-0.3
		C28.9,36.5,29,36.6,29,36.8 M29.5,36.7c0-0.4-0.3-0.6-0.8-0.6c-0.6,0-1,0.3-1.1,0.7c0,0.2,0.1,0.4,0.2,0.5l0.2,0.2l-0.4,0.3
		c-0.3,0.2-0.5,0.5-0.5,0.8c0,0.4,0.3,0.7,0.9,0.7c0.7,0,1.3-0.3,1.3-0.8c0-0.2-0.1-0.5-0.3-0.6l-0.3-0.3l0.3-0.2
		c0.2-0.2,0.3-0.2,0.4-0.4C29.5,36.8,29.5,36.8,29.5,36.7"/>
	<path class="st0" d="M31.6,36.8h-1.4l-0.3,1.6h0.3c0.1,0,0.3,0,0.4,0.1s0.1,0.2,0.1,0.3c0,0.4-0.3,0.7-0.6,0.7
		c-0.1,0-0.3,0-0.5-0.1l-0.2,0.4c0.3,0.1,0.4,0.1,0.6,0.1c0.7,0,1.2-0.6,1.3-1.2c0-0.3-0.1-0.6-0.4-0.7c-0.1,0-0.2,0-0.4,0l0.1-0.7
		h0.8L31.6,36.8z"/>
	<path class="st0" d="M33.6,36.8h-1.4l-0.3,1.6h0.3c0.1,0,0.3,0,0.4,0.1c0.1,0.1,0.1,0.2,0.1,0.3c0,0.4-0.3,0.7-0.6,0.7
		c-0.1,0-0.3,0-0.5-0.1l-0.2,0.4c0.3,0.1,0.4,0.1,0.6,0.1c0.7,0,1.2-0.6,1.3-1.2c0-0.3-0.1-0.6-0.4-0.7c-0.1,0-0.2,0-0.4,0l0.1-0.7
		h0.8L33.6,36.8z"/>
</g>
</svg>
