<?xml version="1.0" encoding="UTF-8"?>
<svg width="165px" height="28px" viewBox="0 0 165 28" version="1.1" xmlns="http://www.w3.org/2000/svg" xmlns:xlink="http://www.w3.org/1999/xlink">
    <!-- Generator: Sketch 49.2 (51160) - http://www.bohemiancoding.com/sketch -->
    <title>logo_be</title>
    <desc>Created with Sketch.</desc>
    <defs></defs>
    <g id="Page-1" stroke="none" stroke-width="1" fill="none" fill-rule="evenodd">
        <g id="logo_be">
            <g id="logo-be" transform="translate(82.500000, 14.000000) scale(-1, 1) rotate(-180.000000) translate(-82.500000, -14.000000) ">
                <path d="M106.112126,18.6802479 C106.459419,20.7679611 105.519702,21.2799609 103.858858,21.2799609 L101.85329,21.2799609 C100.582546,21.2799609 100.266072,21.1865324 100.056897,19.9888187 L99.172541,14.9336783 L102.216849,14.9336783 C103.090076,14.9336783 103.6123,15.2122496 103.953601,15.5871066 C104.125678,15.7756779 104.252666,15.9913921 104.357111,16.2159634 C104.447288,16.4059633 104.518059,16.6011061 104.583408,16.7845345 C104.591113,16.8048203 104.622218,16.8796774 104.630779,16.9013916 L105.458347,16.9165345 L104.494659,11.3953944 L103.656818,11.3953944 C103.897668,12.8462508 103.483599,13.6085361 102.003965,13.6085361 L98.9428196,13.6085361 L97.9491674,7.91625325 C97.7054629,6.52482537 97.9836969,6.49225395 99.2504466,6.49225395 L102.10527,6.49225395 C103.529829,6.49225395 104.314021,7.02368226 104.813415,8.97968129 L105.643837,8.98510986 L104.897028,5.16682604 L94.5241777,5.16682604 L96.9480956,19.0571048 C97.1743926,20.3445328 97.2562933,20.9485325 97.022006,21.2911037 C96.8031285,21.6105321 96.2968852,21.7151035 95.2692742,21.8916749 C95.2179079,21.8991034 95.0435479,21.9348177 94.9898987,21.9448177 L95.1283023,22.6053888 L107.556945,22.6053888 L106.949396,18.6802479 L106.112126,18.6802479 Z" id="path26" fill="#484848" fill-rule="nonzero"></path>
                <path d="M111.240394,12.9033082 C111.535179,12.7130225 111.853936,12.5204512 112.170694,12.3198799 C113.438585,11.5064517 114.701625,10.4913094 114.350337,8.48445322 C113.904021,5.92074021 111.604809,4.8841693 109.047624,4.8841693 C108.260293,4.8841693 107.594815,4.96074069 107.055183,5.05816921 C106.542376,5.15016916 106.03014,5.29016909 105.748767,5.36788334 L106.148854,7.51616799 C106.920204,6.90988257 107.958659,6.1307401 109.348117,6.1307401 C110.943896,6.1307401 111.649612,6.93788256 111.802855,7.80702498 C111.909868,8.41188183 111.656175,8.87731017 111.209859,9.29388139 C110.98556,9.50330985 110.717028,9.69873833 110.422814,9.89359537 C110.125175,10.0870239 109.806989,10.2790238 109.48966,10.4778808 C108.225193,11.275309 106.943033,12.2218799 107.260363,14.0364505 C107.589678,15.9224495 109.155208,17.5333059 112.212358,17.5333059 C112.872415,17.5333059 113.471974,17.4493059 113.960239,17.3533059 C114.347198,17.2750203 114.664242,17.1910203 114.882263,17.1338775 C114.920217,17.1210203 115.03836,17.0898775 115.071748,17.0807347 L114.718747,15.0067357 C114.535541,15.147307 114.414545,15.2490213 114.258448,15.3635927 C114.08951,15.4907354 113.883475,15.6353068 113.640341,15.7724496 C113.157212,16.045878 112.542529,16.2855922 111.834531,16.2855922 C111.019233,16.2855922 110.030432,15.9807352 109.845229,14.9190214 C109.742781,14.3335932 109.999613,13.8915934 110.446785,13.4870222 C110.67137,13.2841651 110.943896,13.0950224 111.240394,12.9033082" id="path30" fill="#484848" fill-rule="nonzero"></path>
                <path d="M118.208487,17.2516773 L118.556351,19.257962 L121.664582,21.6536751 L120.896085,17.2516773 L124.263145,17.2516773 L124.063102,16.1071065 L120.696042,16.1071065 L119.397331,8.66453873 C119.082855,6.86653963 119.075721,6.13082571 120.993681,6.13082571 C121.291891,6.13082571 121.675711,6.16625426 121.985621,6.23711137 L121.796707,5.09511194 C121.150919,4.98082628 120.584463,4.8842549 120.023714,4.8842549 C117.547574,4.8842549 116.117308,5.2802547 116.641245,8.27253893 L118.009015,16.1071065 L116.00259,16.1071065 L116.203204,17.2516773 L118.208487,17.2516773 Z" id="path34" fill="#484848" fill-rule="nonzero"></path>
                <path d="M129.915291,11.9197656 L130.172122,13.1883364 C130.465481,14.8511927 130.742858,16.544049 129.207863,16.544049 C127.630062,16.544049 127.23768,15.2220497 127.031644,14.1083359 C127.025366,14.0729074 127.009671,13.9669074 127.003108,13.9306217 L123.810978,13.9191932 C124.439645,15.7386208 125.632484,17.5331914 129.333995,17.5331914 C133.037505,17.5331914 133.281209,15.6017638 132.834322,13.0406222 L131.460274,5.16691181 L128.772676,5.16691181 L129.017807,6.57462539 C128.849726,6.40691119 128.742142,6.30262553 128.620575,6.18976844 C128.408261,5.99576854 128.153427,5.7849115 127.855788,5.59176874 C127.256229,5.2031975 126.477459,4.8840548 125.473248,4.8840548 C123.441427,4.8840548 122.217482,6.35148265 122.490009,7.91148187 C123.123241,11.5343372 128.19081,11.8614799 129.915291,11.9197656 M125.50892,8.32976737 C125.302598,7.15748224 125.747487,6.38776834 126.642973,6.38776834 C128.095497,6.38776834 129.218707,7.71748197 129.520626,9.45633824 L129.769182,10.8797661 C128.656246,10.8400518 125.908435,10.6237662 125.50892,8.32976737 M125.50892,8.32976737 C125.302598,7.15748224 125.747487,6.38776834 126.642973,6.38776834 C128.095497,6.38776834 129.218707,7.71748197 129.520626,9.45633824 L129.769182,10.8797661 C128.656246,10.8400518 125.908435,10.6237662 125.50892,8.32976737 M129.915291,11.9197656 L130.172122,13.1883364 C130.465481,14.8511927 130.742858,16.544049 129.207863,16.544049 C127.630062,16.544049 127.23768,15.2220497 127.031644,14.1083359 C127.025366,14.0729074 127.009671,13.9669074 127.003108,13.9306217 L123.810978,13.9191932 C124.439645,15.7386208 125.632484,17.5331914 129.333995,17.5331914 C133.037505,17.5331914 133.281209,15.6017638 132.834322,13.0406222 L131.460274,5.16691181 L128.772676,5.16691181 L129.017807,6.57462539 C128.849726,6.40691119 128.742142,6.30262553 128.620575,6.18976844 C128.408261,5.99576854 128.153427,5.7849115 127.855788,5.59176874 C127.256229,5.2031975 126.477459,4.8840548 125.473248,4.8840548 C123.441427,4.8840548 122.217482,6.35148265 122.490009,7.91148187 C123.123241,11.5343372 128.19081,11.8614799 129.915291,11.9197656" id="path38" fill="#484848" fill-rule="nonzero"></path>
                <path d="M141.999951,11.9778226 C142.256783,13.4418219 142.418586,16.0298206 140.052598,16.0298206 C137.743399,16.0298206 136.998302,13.133822 136.680973,11.3138229 C136.328257,9.29696678 136.040036,6.38782537 138.373777,6.38782537 C140.786566,6.38782537 141.575894,9.54210951 141.81703,10.9235374 L141.999951,11.9778226 Z M146.66772,23.3103884 L143.499276,5.16696883 L140.811678,5.16696883 L141.048534,6.52153959 C140.834507,6.34468253 140.678982,6.21953974 140.508902,6.08868266 C140.255495,5.89782561 139.970127,5.70011143 139.649088,5.52211151 C139.004726,5.16354026 138.221676,4.88411183 137.285383,4.88411183 C133.879798,4.88411183 133.116153,7.75325326 133.67633,10.9738231 C134.24935,14.2478215 136.135919,17.5332484 139.57375,17.5332484 C141.615846,17.5332484 142.281324,16.5269632 142.637464,15.6858207 C142.681125,15.7992493 142.727926,16.0469634 142.784714,16.3763918 L143.02157,17.7826768 C143.188795,18.7821049 143.359446,19.751533 143.359446,19.751533 C143.659653,21.478675 143.377138,21.9143891 142.072435,22.0152462 C142.02963,22.0189604 141.856696,22.0346747 141.810467,22.0375319 L141.936885,22.6498173 L146.66772,23.3103884 Z" id="path42" fill="#484848" fill-rule="nonzero"></path>
                <path d="M152.368521,17.5333345 C156.145655,17.5333345 157.533116,14.9133358 156.881049,11.1876233 C156.145655,6.96991114 154.018235,4.8841979 150.180888,4.8841979 C145.988543,4.8841979 145.030277,7.5850537 145.661797,11.2061947 C146.414883,15.5264783 148.579687,17.5333345 152.368521,17.5333345 M153.9409,11.2061947 C154.360106,13.610765 154.627496,16.5439064 152.215849,16.5439064 C149.727723,16.5439064 149.002032,13.4704793 148.604229,11.1876233 C148.223547,9.00991013 147.868835,5.87362598 150.331848,5.87362598 C152.794861,5.87362598 153.487735,8.61391033 153.9409,11.2061947 M153.9409,11.2061947 C154.360106,13.610765 154.627496,16.5439064 152.215849,16.5439064 C149.727723,16.5439064 149.002032,13.4704793 148.604229,11.1876233 C148.223547,9.00991013 147.868835,5.87362598 150.331848,5.87362598 C152.794861,5.87362598 153.487735,8.61391033 153.9409,11.2061947 M152.368521,17.5333345 C156.145655,17.5333345 157.533116,14.9133358 156.881049,11.1876233 C156.145655,6.96991114 154.018235,4.8841979 150.180888,4.8841979 C145.988543,4.8841979 145.030277,7.5850537 145.661797,11.2061947 C146.414883,15.5264783 148.579687,17.5333345 152.368521,17.5333345" id="path46" fill="#484848" fill-rule="nonzero"></path>
                <path d="M40.5666081,15.03765 L42.2220293,15.03765 C44.418794,15.03765 46.2051992,15.7490782 46.6432395,18.2585056 C47.0381891,20.5236473 45.9095577,21.2799326 43.5875163,21.2799326 C42.050523,21.2799326 41.6427318,21.2042184 41.4309885,19.9887904 L40.5666081,15.03765 Z M49.6062179,18.3662198 C49.1775948,15.906221 47.2861741,14.8922215 45.9497947,14.4522217 C47.644882,14.0627934 49.5548517,13.0627939 48.987825,9.82022405 C48.5811752,7.49165378 47.0550259,6.32708293 45.3727801,5.74565465 C44.5337974,5.45708336 43.6528657,5.31079772 42.8521224,5.23994061 C42.0522352,5.16679779 41.3276852,5.16679779 40.7986125,5.16679779 L35.8991251,5.16679779 L38.3253259,19.0570766 C38.54934,20.3445045 38.6369481,20.9493614 38.4060852,21.2910755 C38.1783613,21.6290753 37.5371389,21.7705038 36.3888171,21.962218 L36.5023936,22.6053605 L44.1862189,22.6053605 C47.1315045,22.6053605 50.2257524,21.9119323 49.6062179,18.3662198 Z M39.2476361,7.47965378 C39.0772713,6.50793998 40.0167035,6.4922257 41.4749352,6.4922257 C44.2743977,6.4922257 45.6792656,7.73279652 46.1330011,10.3302238 C46.5681876,12.8233654 44.8768101,13.7116507 42.6263961,13.7116507 L40.3351745,13.7116507 L39.2476361,7.47965378 Z" id="path50" fill="#484848" fill-rule="nonzero"></path>
                <path d="M56.6313845,11.9197656 L56.8896428,13.1883364 C57.180433,14.8511927 57.4603793,16.544049 55.9233859,16.544049 C54.3667022,16.544049 53.9617646,15.2549068 53.755158,14.1486216 C53.7448848,14.0997645 53.7300456,13.9769074 53.7214846,13.9289075 L50.5265017,13.9191932 C51.1565948,15.7386208 52.3474365,17.5331914 56.0503748,17.5331914 C59.7558814,17.5331914 59.9984444,15.6017638 59.550987,13.0406222 L58.1755121,5.16691181 L55.487914,5.16691181 L55.7347575,6.57462539 C55.5655342,6.40691119 55.457665,6.30262553 55.338381,6.18976844 C55.1240695,5.99719711 54.8692357,5.7849115 54.5715966,5.59176874 C53.9720379,5.2031975 53.1935533,4.8840548 52.1896279,4.8840548 C50.1572352,4.8840548 48.9344323,6.35148265 49.206959,7.91148187 C49.8399057,11.5343372 54.9071896,11.8614799 56.6313845,11.9197656 M52.2241574,8.32976737 C52.0189776,7.15748224 52.4618692,6.38776834 53.3593523,6.38776834 C54.8095937,6.38776834 55.9333738,7.71748197 56.2370056,9.45633824 L56.4855614,10.8797661 C55.3717691,10.8400518 52.6242437,10.6237662 52.2241574,8.32976737 M52.2241574,8.32976737 C52.0189776,7.15748224 52.4618692,6.38776834 53.3593523,6.38776834 C54.8095937,6.38776834 55.9333738,7.71748197 56.2370056,9.45633824 L56.4855614,10.8797661 C55.3717691,10.8400518 52.6242437,10.6237662 52.2241574,8.32976737 M56.6313845,11.9197656 L56.8896428,13.1883364 C57.180433,14.8511927 57.4603793,16.544049 55.9233859,16.544049 C54.3667022,16.544049 53.9617646,15.2549068 53.755158,14.1486216 C53.7448848,14.0997645 53.7300456,13.9769074 53.7214846,13.9289075 L50.5265017,13.9191932 C51.1565948,15.7386208 52.3474365,17.5331914 56.0503748,17.5331914 C59.7558814,17.5331914 59.9984444,15.6017638 59.550987,13.0406222 L58.1755121,5.16691181 L55.487914,5.16691181 L55.7347575,6.57462539 C55.5655342,6.40691119 55.457665,6.30262553 55.338381,6.18976844 C55.1240695,5.99719711 54.8692357,5.7849115 54.5715966,5.59176874 C53.9720379,5.2031975 53.1935533,4.8840548 52.1896279,4.8840548 C50.1572352,4.8840548 48.9344323,6.35148265 49.206959,7.91148187 C49.8399057,11.5343372 54.9071896,11.8614799 56.6313845,11.9197656" id="path54" fill="#484848" fill-rule="nonzero"></path>
                <path d="M68.8935725,11.9005364 C69.2539926,13.9776783 69.5356511,15.6679631 67.8959251,15.6679631 C66.2410747,15.6679631 64.3696298,13.31225 64.052871,11.4939652 L62.9496374,5.16682551 L60.2614685,5.16682551 L61.7770593,13.8565355 C62.0781228,15.5679632 61.7713519,16.0002487 60.3390887,16.0736772 C60.3017055,16.0742487 60.1436115,16.0936772 60.1039453,16.0948201 L60.219234,16.7039626 L65.109875,17.5459622 L64.5556899,14.3682495 C65.3858261,15.5913918 67.0749207,17.5333908 69.3844059,17.5333908 C71.7792162,17.5333908 72.2663398,15.8291059 71.9181905,13.8391069 L70.4054535,5.16682551 L67.7161431,5.16682551 L68.8935725,11.9005364 Z" id="path58" fill="#484848" fill-rule="nonzero"></path>
                <path d="M79.9942263,13.8934216 C80.1934133,15.0799924 80.1720107,16.5439917 78.6746835,16.5439917 C76.9821645,16.5439917 76.2673171,14.7011355 75.8329866,12.2159939 C75.1703615,8.41628146 76.5521146,6.38771104 78.8347751,6.38771104 C79.5912864,6.38771104 80.6066266,6.52799669 81.2592637,6.71913945 C81.2823786,6.72599659 81.3619963,6.75285372 81.3833989,6.76028229 L81.1779338,5.4999972 C80.6465781,5.31885443 80.2747433,5.17942593 79.7314022,5.06828313 C79.177217,4.95371176 78.4783502,4.88428322 77.4102169,4.88428322 C73.7649229,4.88428322 72.0615599,7.47456764 72.7450168,11.3854228 C73.3614122,14.9285639 75.2662453,17.5334198 78.9817398,17.5334198 C81.7706436,17.5334198 83.4314868,16.1585633 83.1795066,14.1199929 C83.1746554,14.0728501 83.1578186,13.9465644 83.1501137,13.8994216 L79.9942263,13.8934216 Z" id="path62" fill="#484848" fill-rule="nonzero"></path>
                <path d="M89.5133971,17.5333345 C93.2893897,17.5333345 94.6779915,14.9133358 94.0273519,11.1876233 C93.2893897,6.96991114 91.1631109,4.8841979 87.3246226,4.8841979 C83.1342754,4.8841979 82.1762942,7.5850537 82.8063873,11.2061947 C83.5620424,15.5264783 85.727702,17.5333345 89.5133971,17.5333345 M91.0863468,11.2061947 C91.5052674,13.610765 91.7729428,16.5439064 89.3601543,16.5439064 C86.8737408,16.5439064 86.1469079,13.4704793 85.7491046,11.1876233 C85.3684233,9.00991013 85.0142814,5.87362598 87.4772947,5.87362598 C89.940308,5.87362598 90.6337528,8.61391033 91.0863468,11.2061947 M91.0863468,11.2061947 C91.5052674,13.610765 91.7729428,16.5439064 89.3601543,16.5439064 C86.8737408,16.5439064 86.1469079,13.4704793 85.7491046,11.1876233 C85.3684233,9.00991013 85.0142814,5.87362598 87.4772947,5.87362598 C89.940308,5.87362598 90.6337528,8.61391033 91.0863468,11.2061947 M89.5133971,17.5333345 C93.2893897,17.5333345 94.6779915,14.9133358 94.0273519,11.1876233 C93.2893897,6.96991114 91.1631109,4.8841979 87.3246226,4.8841979 C83.1342754,4.8841979 82.1762942,7.5850537 82.8063873,11.2061947 C83.5620424,15.5264783 85.727702,17.5333345 89.5133971,17.5333345" id="path66" fill="#484848" fill-rule="nonzero"></path>
                <path d="M159.871708,15.4938491 C159.871708,16.6718486 160.824838,17.6267052 162.00084,17.6267052 C163.176272,17.6267052 164.128831,16.6718486 164.128831,15.4938491 C164.128831,14.317564 163.176272,13.3641359 162.00084,13.3641359 C160.824838,13.3641359 159.871708,14.317564 159.871708,15.4938491 Z" id="path70" stroke="#484848" stroke-width="0.5"></path>
                <path d="M161.169791,14.001393 L161.645214,14.001393 L161.645214,15.329678 L161.822428,15.329678 C162.284439,15.329678 162.372047,15.0539639 162.436255,14.7982497 L162.603766,14.001393 L163.083756,14.001393 L162.924806,14.775964 C162.850895,15.1253924 162.790683,15.4248209 162.341798,15.4991065 L162.341798,15.5073922 C162.595491,15.5545351 162.980738,15.722535 162.980738,16.2033919 C162.980738,16.9193916 162.323535,16.9873915 161.822428,16.9873915 L161.169791,16.9873915 L161.169791,14.001393 Z M161.645214,16.7021345 L161.822428,16.7021345 C162.272169,16.7021345 162.503602,16.5841346 162.503602,16.1824205 C162.503602,15.7109921 162.125204,15.6152779 161.822428,15.6152779 L161.645214,15.6152779 L161.645214,16.7021345 Z" id="Combined-Shape" fill="#484848" fill-rule="nonzero"></path>
                <polygon id="path84" fill="#C1133C" fill-rule="nonzero" points="0.243419111 27.7428433 27.8759114 27.7428433 27.8759114 0.0705713935 0.243419111 0.0705713935"></polygon>
                <g id="g86" transform="translate(15.890331, 4.587741)" fill="#F39900" fill-rule="nonzero">
                    <path d="M11.9854662,8.57142431 L0.269958358,18.4439908 C0.269102253,18.4439908 0.267675412,18.4425623 0.267104675,18.4414194 L0.267104675,0.0928570966 L11.9854662,0.0902856694 L11.9854662,8.57142431 Z" id="path88"></path>
                </g>
                <g id="g90" transform="translate(0.179753, 4.393969)" fill="#FFFFFF" fill-rule="nonzero">
                    <path d="M15.9806216,15.999992 L15.9797655,18.6394193 C15.1638977,17.7248483 13.1115293,16.1625634 10.5863057,15.7979921 L10.5863057,13.7559932 L8.60984525,12.8937079 L8.60984525,11.135423 L0.0636371181,7.83028182 L0.0636371181,0.284285573 L18.0061654,0.284285573 L18.0061654,16.8474202 L15.9806216,15.999992 Z" id="path92"></path>
                </g>
                <g id="g94" transform="translate(0.211515, 8.280539)" fill="#C1133C" fill-rule="nonzero">
                    <path d="M10.558625,7.99999602 L8.93345284,7.38428204 C8.74796348,7.31256779 8.59757441,7.10456789 8.59757441,6.91999656 L8.59900126,5.65942576 C8.58501821,5.45971157 8.4557464,5.28571166 8.25456179,5.22628311 L0.0316758749,2.05399898 L0.0316758749,0.125714223 L8.28081566,3.34028405 C8.46544892,3.4119983 8.61526725,3.62056963 8.61526725,3.80571239 L8.61526725,5.05599748 C8.62753808,5.25371167 8.75566842,5.42114016 8.93345284,5.48685441 L10.558625,6.10513982 L10.558625,7.99999602 Z" id="path96"></path>
                </g>
                <g id="g98" transform="translate(0.211515, 4.576998)" fill="#C1133C" fill-rule="nonzero">
                    <path d="M10.558625,7.99999602 L8.93345284,7.38485347 C8.74796348,7.31313922 8.59757441,7.10456789 8.59757441,6.9188537 L8.59900126,5.6582829 C8.58501821,5.46056871 8.4557464,5.28542594 8.25456179,5.22514026 L0.0316758749,1.99942758 L0.0316758749,0.105142805 L8.28081566,3.34028405 C8.46544892,3.41171259 8.61526725,3.62056963 8.61526725,3.80628382 L8.61526725,5.05514034 C8.62753808,5.25256881 8.75566842,5.42085445 8.93345284,5.48685441 L10.558625,6.10513982 L10.558625,7.99999602 Z" id="path100"></path>
                </g>
                <polygon id="path102" fill="#074990" fill-rule="nonzero" points="0.243419111 4.68228338 27.8759114 4.68228338 27.8759114 0.0705713935 0.243419111 0.0705713935"></polygon>
                <g id="g104" transform="translate(6.405747, 0.952571)" fill="#FFFFFF" fill-rule="nonzero">
                    <path d="M1.9975777,2.85714144 L1.56524481,2.80971289 L1.38717503,1.86828478 C1.2427787,1.92971333 1.17457569,1.94657046 1.07127238,1.94657046 C0.572163326,1.94657046 0.141828017,1.36199932 0.126988868,0.670285381 C0.120425398,0.359714107 0.239423956,0.170571344 0.453735506,0.170571344 C0.57815606,0.170571344 0.762218576,0.248857019 0.910610062,0.366571246 C0.994222957,0.433999784 1.06385281,0.505714034 1.11835814,0.583428281 C1.14090223,0.61228541 1.17058053,0.658571101 1.2076784,0.723428211 L1.12178256,0.231142742 L1.52443715,0.231142742 L1.9975777,2.85714144 Z M1.32953064,1.5434278 L1.2921474,1.33685648 C1.26503742,1.16171371 1.12035572,0.926856682 0.945424988,0.758571051 C0.835843583,0.655142531 0.71941334,0.583428281 0.659771377,0.583428281 C0.598417205,0.583428281 0.564458384,0.648285392 0.567312066,0.755142481 C0.570736485,0.930285251 0.656346958,1.20142797 0.747664796,1.35828504 C0.847829049,1.52257067 0.996505903,1.63285633 1.11407762,1.63285633 C1.19340999,1.63285633 1.26275447,1.60514206 1.32953064,1.5434278 Z" id="path106"></path>
                </g>
                <g id="g108" transform="translate(8.520925, 1.117199)" fill="#FFFFFF" fill-rule="nonzero">
                    <path d="M1.42684121,1.42857072 C1.43197784,1.65742775 1.27502531,1.77542769 0.963688555,1.77542769 C0.411501006,1.77542769 0.0194050405,1.29742793 0.00342441891,0.609142554 C-0.00542199661,0.216285607 0.146964645,0.0202857042 0.463723394,0.0202857042 C0.606978252,0.0202857042 0.774774779,0.0622856833 0.916032059,0.137999931 C0.966542238,0.162285634 1.02761104,0.201999899 1.10408973,0.255999873 C1.19854662,0.323142696 1.24106649,0.351714111 1.34379905,0.433999784 L1.18456358,0.687428229 C0.952844562,0.515714029 0.894629441,0.47714262 0.798460343,0.437428354 C0.725976809,0.408856939 0.640080968,0.391428377 0.593851313,0.391428377 C0.537063033,0.391428377 0.466577077,0.426571216 0.43518657,0.47714262 C0.414925425,0.509142604 0.404937536,0.544285443 0.392381334,0.626571117 L1.12206793,1.00857093 C1.32981601,1.1191423 1.42227532,1.24342795 1.42684121,1.42857072 M1.01534021,1.33285648 C1.01419873,1.30057078 1.00877674,1.27914222 0.99051317,1.23342796 L0.424342577,0.918856686 C0.500821266,1.15457085 0.546480185,1.25028509 0.633802867,1.35028504 C0.710281556,1.44057071 0.793038346,1.4868564 0.8752244,1.4868564 C0.968254447,1.4868564 1.01648168,1.43285643 1.01534021,1.33285648" id="path110"></path>
                </g>
                <g id="g112" transform="translate(9.969768, 1.081485)" fill="#FFFFFF" fill-rule="nonzero">
                    <path d="M1.42684121,1.71428486 C1.26874721,1.77914197 1.12007035,1.81114196 0.94513962,1.81114196 C0.549619235,1.81114196 0.317614854,1.63257062 0.31019528,1.32657077 C0.307341597,1.22657082 0.338446736,1.14057086 0.397232594,1.06142804 C0.43518657,1.01571378 0.480560121,0.965428091 0.532497141,0.914856688 C0.550760708,0.901428123 0.616680772,0.84399958 0.728545123,0.74057106 C0.814726333,0.665999669 0.845831471,0.612856838 0.844689998,0.547999727 C0.842407052,0.462285484 0.763074681,0.404856941 0.631234553,0.404856941 C0.527931249,0.404856941 0.421203526,0.4302855 0.24513132,0.494285468 L0.119569294,0.148571355 C0.257972891,0.109714231 0.311051384,0.0979999512 0.446030563,0.0771428188 C0.538489874,0.0625713974 0.645217597,0.0559999721 0.713420607,0.0559999721 C1.05814544,0.0559999721 1.29072056,0.251999875 1.2984255,0.554856867 C1.30156455,0.729999637 1.22965176,0.841142439 0.987944856,1.04771376 C0.799316448,1.20428512 0.778199198,1.22657082 0.747664796,1.27914222 C0.733681752,1.30114221 0.72740365,1.32657077 0.72740365,1.35114218 C0.729401228,1.42914215 0.809304336,1.47628498 0.947707934,1.47628498 C1.06242597,1.47628498 1.13576561,1.45428499 1.2984255,1.36857075 L1.42684121,1.71428486 Z" id="path114"></path>
                </g>
                <g id="g116" transform="translate(11.484131, 0.952571)" fill="#FFFFFF" fill-rule="nonzero">
                    <path d="M1.9975777,2.85714144 L1.56438871,2.80971289 L1.38631892,1.86828478 C1.24220796,1.92971333 1.17371958,1.94657046 1.07127238,1.94657046 C0.572163326,1.94657046 0.140686544,1.36199932 0.124705922,0.670285381 C0.118142452,0.359714107 0.239138587,0.170571344 0.452023296,0.170571344 C0.577299955,0.170571344 0.760506367,0.248857019 0.909753958,0.366571246 C0.993937589,0.433999784 1.0629967,0.505714034 1.11835814,0.583428281 C1.14004613,0.61228541 1.16972443,0.658571101 1.20739303,0.723428211 L1.12007035,0.231142742 L1.52243957,0.231142742 L1.9975777,2.85714144 Z M1.32867454,1.5434278 L1.2921474,1.33685648 C1.26303984,1.16171371 1.11835814,0.926856682 0.943998147,0.758571051 C0.834131373,0.655142531 0.718557235,0.583428281 0.658059168,0.583428281 C0.598131837,0.583428281 0.563602279,0.648285392 0.566455962,0.755142481 C0.570451117,0.930285251 0.654634749,1.20142797 0.746808691,1.35828504 C0.848114417,1.52257067 0.995649799,1.63285633 1.11322151,1.63285633 C1.19169778,1.63285633 1.26303984,1.60514206 1.32867454,1.5434278 Z" id="path118"></path>
                </g>
                <g id="g120" transform="translate(13.598453, 1.117199)" fill="#FFFFFF" fill-rule="nonzero">
                    <path d="M1.42684121,1.42857072 C1.43197784,1.65742775 1.27388384,1.77542769 0.963688555,1.77542769 C0.410359533,1.77542769 0.0182635675,1.29742793 0.00342441891,0.609142554 C-0.00542199661,0.216285607 0.146679277,0.0202857042 0.463438026,0.0202857042 C0.606978252,0.0202857042 0.774774779,0.0622856833 0.915175954,0.137999931 C0.96625687,0.162285634 1.02846715,0.201999899 1.10408973,0.255999873 C1.19711978,0.323142696 1.24192259,0.351714111 1.34294295,0.433999784 L1.18456358,0.687428229 C0.952844562,0.515714029 0.894629441,0.47714262 0.797604238,0.437428354 C0.725976809,0.408856939 0.640080968,0.391428377 0.592995208,0.391428377 C0.537063033,0.391428377 0.466291708,0.426571216 0.43518657,0.47714262 C0.413783952,0.509142604 0.403796063,0.544285443 0.392381334,0.626571117 L1.12092646,1.00857093 C1.32981601,1.1191423 1.42227532,1.24342795 1.42684121,1.42857072 M1.01419873,1.33285648 C1.01305726,1.30057078 1.00877674,1.27914222 0.991369275,1.23342796 L0.424342577,0.918856686 C0.500821266,1.15457085 0.545338712,1.25028509 0.633802867,1.35028504 C0.710566924,1.44057071 0.793038346,1.4868564 0.874653664,1.4868564 C0.968254447,1.4868564 1.01648168,1.43285643 1.01419873,1.33285648" id="path122"></path>
                </g>
                <g id="g124" transform="translate(16.263764, 0.910857)" fill="#FFFFFF" fill-rule="nonzero">
                    <polygon id="path126" points="1.14147297 1.999999 0.938005414 1.999999 0.0750518478 1.68571345 0.171506314 1.34999933 0.628095502 1.52799924 0.40265459 0.272857007 0.826997167 0.272857007"></polygon>
                </g>
                <g id="g128" transform="translate(17.480745, 1.134914)" fill="#FFFFFF" fill-rule="nonzero">
                    <path d="M1.9975777,1.999999 C2.00442654,2.27514172 1.77984173,2.4422845 1.40201418,2.4422845 C0.927732157,2.4422845 0.591568367,2.22114175 0.584148793,1.90399905 C0.580724374,1.76085627 0.648642016,1.60114206 0.759650262,1.48257069 L0.909468589,1.32599934 L0.605836779,1.12571373 C0.410930269,0.997713789 0.254833841,0.741142488 0.249697212,0.534285448 C0.242277638,0.190857048 0.476279597,0.00914285259 0.921739424,0.00914285259 C1.49219054,0.00914285259 1.89084998,0.265999868 1.89912565,0.644571108 C1.90255007,0.808571026 1.81123224,0.99428522 1.65741875,1.12571373 L1.42598511,1.32599934 L1.65485044,1.48257069 C1.82550065,1.60114206 1.89427439,1.67599917 1.95134804,1.80057053 C1.9795995,1.8645705 1.99700696,1.93599904 1.9975777,1.999999 M1.54983493,1.91428476 C1.54783735,1.82257052 1.50018085,1.73571342 1.42455827,1.68599916 L1.21766629,1.55057066 L1.08982132,1.70799915 C1.05215271,1.75771341 1.02809978,1.82571338 1.02932325,1.88971335 C1.03274767,2.02857042 1.16373169,2.13199894 1.33038675,2.13199894 C1.46308298,2.13199894 1.55297398,2.04285613 1.54983493,1.91428476 M1.44738773,0.683142517 C1.4431072,0.487999757 1.2427787,0.316285557 1.02161831,0.316285557 C0.822716644,0.316285557 0.689164306,0.429714072 0.694015566,0.598285417 C0.69658388,0.734571063 0.800172552,0.897428125 0.937720045,0.99085665 L1.1403315,1.12571373 L1.35293084,0.923142398 C1.41628259,0.861428143 1.4493853,0.779999612 1.44738773,0.683142517" id="path130"></path>
                </g>
                <g id="g132" transform="translate(19.326735, 0.473228)" fill="#FFFFFF" fill-rule="nonzero">
                    <path d="M1.71220946,2.57142729 L0.635800445,2.57142729 L0.41892058,1.35828504 L0.644076124,1.35828504 C0.747379427,1.35828504 0.891775758,1.31971363 0.966827606,1.27342794 C1.03731356,1.22685653 1.07755048,1.13028515 1.07526754,1.00914235 C1.06670649,0.70542822 0.844119262,0.456571201 0.581009742,0.456571201 C0.476850333,0.456571201 0.377542185,0.481714046 0.20460903,0.553142582 L0.0759079525,0.217428463 C0.269958358,0.142285643 0.391239861,0.117142799 0.544767975,0.117142799 C1.06413818,0.117142799 1.509598,0.548571156 1.5212981,1.06228519 C1.5267201,1.31199935 1.42741195,1.50885639 1.24705922,1.59371349 C1.15003402,1.6402849 1.08211638,1.65542775 0.90119291,1.67199917 L0.997932745,2.21142747 L1.6471455,2.21142747 L1.71220946,2.57142729 Z" id="path134"></path>
                </g>
                <g id="g136" transform="translate(20.866982, 0.473228)" fill="#FFFFFF" fill-rule="nonzero">
                    <path d="M1.71220946,2.57142729 L0.636085813,2.57142729 L0.419205948,1.35828504 L0.644361492,1.35828504 C0.746808691,1.35828504 0.892917231,1.31971363 0.967112974,1.27342794 C1.03759893,1.22685653 1.07640901,1.13028515 1.07498217,1.00914235 C1.0675626,0.70542822 0.844119262,0.456571201 0.581009742,0.456571201 C0.476850333,0.456571201 0.377827553,0.481714046 0.204894398,0.553142582 L0.0761933208,0.217428463 C0.270243726,0.142285643 0.390098388,0.117142799 0.544482607,0.117142799 C1.06413818,0.117142799 1.50988337,0.548571156 1.52158347,1.06228519 C1.52643473,1.31199935 1.42712658,1.50885639 1.24762996,1.59371349 C1.15003402,1.6402849 1.08240174,1.65542775 0.900336806,1.67199917 L0.997932745,2.21142747 L1.64771623,2.21142747 L1.71220946,2.57142729 Z" id="path138"></path>
                </g>
            </g>
        </g>
    </g>
</svg>