<svg width="46" height="46" viewBox="0 0 46 46" fill="none" xmlns="http://www.w3.org/2000/svg">
<path fill-rule="evenodd" clip-rule="evenodd" d="M23.2347 43.1843C12.235 43.1843 3.28554 34.2349 3.28554 23.2352C3.28554 12.2346 12.235 3.28603 23.2347 3.28603C34.2344 3.28603 43.1838 12.2346 43.1838 23.2352C43.1838 34.2349 34.2344 43.1843 23.2347 43.1843ZM23.2347 0.7146C10.8173 0.7146 0.714111 10.8169 0.714111 23.2352C0.714111 35.6526 10.8173 45.7557 23.2347 45.7557C35.653 45.7557 45.7553 35.6526 45.7553 23.2352C45.7553 10.8169 35.653 0.7146 23.2347 0.7146ZM23.1941 25.2819C23.9047 25.2819 24.4799 24.7067 24.4799 23.9961V14.0139C24.4799 13.3041 23.9047 12.7281 23.1941 12.7281C22.4836 12.7281 21.9084 13.3041 21.9084 14.0139V23.9961C21.9084 24.7067 22.4836 25.2819 23.1941 25.2819ZM23.2347 28.4157C22.1298 28.4157 21.235 29.3115 21.235 30.4155C21.235 31.5203 22.1298 32.416 23.2347 32.416C24.3395 32.416 25.2344 31.5203 25.2344 30.4155C25.2344 29.3115 24.3395 28.4157 23.2347 28.4157Z" fill="#3E50B4"/>
</svg>
