<svg enable-background="new 0 0 20 20" viewBox="0 0 20 20" xmlns="http://www.w3.org/2000/svg"><path d="m0 0h24v24h-24z" fill="none"/><path d="m16.9 6.5c.5.5.7 1 .7 1.7v9.4c0 .6-.2 1.2-.7 1.7s-1 .7-1.7.7h-10.4c-.6 0-1.2-.2-1.7-.7s-.7-1-.7-1.7v-9.4c0-.6.2-1.2.7-1.7s1-.7 1.7-.7h.1v-1.1c0-.7.1-1.3.4-1.8.3-.6.6-1.1 1.1-1.5s1-.8 1.6-1c.6-.3 1.3-.4 2-.4 1.4 0 2.6.5 3.6 1.4s1.5 2 1.5 3.3l.1 1.2c.6-.1 1.2.2 1.7.6zm-.5 1.8c0-.3-.1-.6-.4-.8-.2-.2-.5-.4-.8-.4h-10.4c-.3-0-.6.2-.8.4-.3.2-.4.5-.4.8v9.4c0 .3.1.6.4.8.2.2.5.4.8.4h10.4c.3 0 .6-.1.8-.4.2-.2.4-.5.4-.8zm-10.3-3.6v1.2h7.8v-1.2c0-1-.4-1.8-1.1-2.5s-1.7-1-2.8-1-2 .3-2.8 1-1.1 1.5-1.1 2.5zm3.9 5.9c.6 0 1.2.2 1.7.7s.7 1 .7 1.7-.2 1.2-.7 1.7-1 .7-1.7.7-1.2-.2-1.7-.7-.7-1-.7-1.7c0-.6.2-1.2.7-1.7s1.1-.7 1.7-.7zm.8 3.2c.2-.2.4-.5.4-.8s-.1-.6-.4-.8c-.2-.2-.5-.4-.8-.4s-.6.1-.8.4c-.2.2-.4.5-.4.8s.1.6.4.8c.2.2.5.4.8.4s.6-.2.8-.4z" fill="#3e50b4"/></svg>