<svg enable-background="new 0 0 20 20" viewBox="0 0 20 20" xmlns="http://www.w3.org/2000/svg"><path d="m0 0h24v24h-24z" fill="none"/><path d="m10 20c-1.3 0-2.6-.3-3.8-.8s-2.4-1.2-3.3-2.1-1.6-1.9-2.1-3.1-.8-2.6-.8-4c0-1.3.3-2.6.8-3.8s1.2-2.4 2.1-3.3 1.9-1.6 3.1-2.1 2.6-.8 4-.8c1.3 0 2.6.3 3.8.8s2.3 1.2 3.2 2.1 1.6 1.9 2.1 3.1.9 2.6.9 4c0 1.3-.3 2.6-.8 3.8s-1.2 2.3-2.1 3.2-2 1.6-3.2 2.1-2.6.9-3.9.9zm0-18.8c-1.2 0-2.3.2-3.4.7-1 .5-2 1.1-2.8 1.9s-1.5 1.8-1.9 2.8c-.5 1-.7 2.2-.7 3.4s.2 2.3.7 3.4 1.1 2 1.9 2.8 1.7 1.4 2.8 1.9c1 .5 2.2.7 3.4.7s2.3-.2 3.4-.7 2-1.1 2.8-1.9 1.4-1.7 1.9-2.8c.5-1 .7-2.2.7-3.4s-.2-2.3-.7-3.4-1.1-2-1.9-2.8-1.7-1.4-2.8-1.9c-1.1-.5-2.2-.7-3.4-.7zm-1.7 12.1c-.1 0-.2-.1-.2-.1l-2.6-2.6c-.1-.1-.1-.2-.1-.4s0-.3.1-.4.2-.1.4-.1.3 0 .4.1l2.2 2.2 5.2-5.3c.1-.1.2-.1.4-.1s.3 0 .4.1.1.2.1.4 0 .3-.1.4l-5.6 5.6c0 .1-.1.2-.2.2s-.1 0-.2 0c-0 0-.1 0-.2 0z" fill="#04c266"/></svg>